<?xml version="1.0" encoding="UTF-8"?> <svg xmlns="http://www.w3.org/2000/svg" width="114" height="114" viewBox="0 0 114 114" fill="none"> <path fill-rule="evenodd" clip-rule="evenodd" d="M68.7642 50.0001L64.0642 54.7001H70.7V60.3001H64.0642L68.7642 65.0001L64.8 68.9643L60.1 64.2643V70.9001H54.5V64.2643L49.8 68.9643L45.8358 65.0001L50.5358 60.3001H43.9V54.7001H50.5358L45.8358 50.0001L49.8 46.0359L54.5 50.7359V44.1001H60.1V50.7359L64.8 46.0359L68.7642 50.0001ZM59 54.3501L58.4 54.1001L59.1 51.8501V45.1001H55.5V51.8501L56.2 54.1001L55.6 54.3501L54.2 51.8501L49.8 47.4501L47.25 50.0001L51.65 54.4001L54.15 55.8001L53.9 56.4001L51.65 55.7001H44.9V59.3001H51.65L53.9 58.6001L54.15 59.2001L51.65 60.6001L47.25 65.0001L49.8 67.5501L54.2 63.1501L55.6 60.6501L56.2 60.9001L55.5 63.1501V69.9001H59.1V63.1501L58.4 60.9001L59 60.6501L60.4 63.1501L64.8 67.5501L67.35 65.0001L62.95 60.6001L60.45 59.2001L60.7 58.6001L62.95 59.3001H69.7V55.7001H62.95L60.7 56.4001L60.45 55.8001L62.95 54.4001L67.35 50.0001L64.8 47.4501L60.4 51.8501L59 54.3501Z" fill="#D99546"></path> <path d="M112.216 58.3428L111.798 62.2079L100.826 61.0191L100.665 62.5075L111.636 63.6964L111.217 67.5615L112.538 67.7046L113.537 58.4858L112.216 58.3428Z" fill="#EAEAEA"></path> <path d="M104.822 70.4135C106.353 70.9361 106.888 72.2094 106.434 73.5407C106.001 74.809 104.94 75.3016 103.546 74.8258L98.0612 72.9539L97.601 74.3023L103.177 76.2054C105.434 76.9756 106.901 76.1365 107.513 74.3425C107.985 72.9599 107.677 71.9745 106.909 71.2531L106.948 71.1389L111.244 72.6052L111.704 71.2568L100.003 67.2634L99.5431 68.6118L104.822 70.4135Z" fill="#EAEAEA"></path> <path d="M94.5205 79.6265C93.5566 81.2446 93.6612 82.9091 94.642 83.9993L95.6784 83.0146C95.0339 82.209 95.0485 81.241 95.62 80.2815C96.4759 78.8448 97.9943 78.4073 99.7347 79.3667L96.2897 85.1496L96.8084 85.4585C99.775 87.2258 101.842 86.068 102.831 84.4083C104.116 82.2508 103.268 79.8059 100.82 78.3476C98.3716 76.8893 95.8923 77.3237 94.5205 79.6265ZM100.793 79.997C101.983 80.8184 102.565 82.353 101.731 83.7533C100.94 85.081 99.4377 85.3384 98.0893 84.5351L100.793 79.997Z" fill="#EAEAEA"></path> <path d="M89.1226 87.3943L85.7426 90.3154C83.532 92.2259 83.5501 94.0934 84.7659 95.5002C86.0449 96.98 87.7627 96.8997 88.6688 96.2124L88.7477 96.3037C88.1333 97.2177 87.8787 98.3634 88.9208 99.5692C90.1051 100.939 91.9817 101.264 93.9366 99.5749L97.207 96.7485L89.1226 87.3943ZM88.8583 89.3781L91.6689 92.6302L89.3669 94.6197C88.1428 95.6776 86.6649 95.5186 85.8438 94.5686C85.1333 93.7464 85.1312 92.5992 86.6111 91.3202L88.8583 89.3781ZM92.5215 93.6167L95.2058 96.7226L93.0682 98.5701C91.8258 99.6438 90.7093 99.4597 89.9988 98.6376C89.1461 97.651 89.3974 96.3168 90.4205 95.4326L92.5215 93.6167Z" fill="#EAEAEA"></path> <path d="M77.4831 95.735C75.8239 96.6265 75.0571 98.1075 75.3371 99.547L76.7324 99.2359C76.5944 98.2136 77.105 97.391 78.0888 96.8625C79.5619 96.071 81.0891 96.4772 82.0876 98.1954L76.158 101.381L76.4437 101.913C78.078 104.955 80.4462 105.026 82.1479 104.111C84.3602 102.923 84.8908 100.39 83.5422 97.8799C82.1936 95.3698 79.8443 94.4665 77.4831 95.735ZM82.6704 99.2803C83.2682 100.597 82.9781 102.213 81.5422 102.984C80.1808 103.715 78.7601 103.163 78.0172 101.78L82.6704 99.2803Z" fill="#EAEAEA"></path> <path d="M68.9677 106.91C69.7862 108.033 71.0054 108.576 72.7573 108.029C74.6245 107.447 75.6766 105.955 75.2091 104.456C74.8278 103.235 73.8463 102.643 72.1025 102.77L70.5193 102.884C69.5613 102.956 69.0076 102.66 68.8169 102.05C68.5795 101.289 69.1921 100.415 70.4599 100.019C71.5722 99.672 72.4187 99.9327 72.9575 100.808L74.1477 100.082C73.3613 98.6773 71.8723 98.2629 70.0628 98.8276C68.0055 99.4696 66.9558 101.03 67.4324 102.558C67.8172 103.791 68.8322 104.328 70.5317 104.221L71.9464 104.134C73.0761 104.066 73.6584 104.27 73.8706 104.95C74.108 105.711 73.4738 106.516 72.3904 106.854C71.2033 107.224 70.5084 106.72 70.0815 106.183L68.9677 106.91Z" fill="#EAEAEA"></path> <path d="M62.6761 110.01L64.6362 109.729L64.9517 111.928L66.362 111.726L66.0464 109.527L67.4328 109.328L67.2613 108.133L65.875 108.332L65.0518 102.595C64.822 100.993 63.4215 100.414 62.2264 100.585C61.7005 100.661 61.3796 100.804 61.1986 100.903L61.6673 102.129C61.7833 102.088 61.9677 102.013 62.2784 101.968C62.8999 101.879 63.5249 101.985 63.6964 103.18L64.4647 108.534L62.5046 108.815L62.6761 110.01Z" fill="#EAEAEA"></path> <path d="M43.5015 105.651C42.8717 109.512 44.7432 112.288 47.8653 112.797C50.9874 113.306 53.6441 111.269 54.2739 107.408C54.9036 103.547 53.0321 100.77 49.91 100.261C46.7879 99.752 44.1312 101.79 43.5015 105.651ZM44.9314 105.884C45.4484 102.714 47.4681 101.282 49.6846 101.644C51.901 102.005 53.3609 104.005 52.8439 107.175C52.3269 110.344 50.3072 111.776 48.0908 111.415C45.8743 111.053 44.4144 109.054 44.9314 105.884Z" fill="#EAEAEA"></path> <path d="M36.2796 106.131L38.2212 106.868L37.887 107.749C37.5614 108.606 37.0288 108.921 36.1484 108.587C35.7646 108.441 35.5731 108.265 35.4547 108.169L34.634 109.174C34.8029 109.342 35.1579 109.631 35.8126 109.88C37.0543 110.351 38.5336 110.06 39.0991 108.57L39.5532 107.374L40.9529 107.905L41.3813 106.776L39.9816 106.245L42.8433 98.7042L41.5113 98.1987L38.6496 105.739L36.708 105.002L36.2796 106.131Z" fill="#EAEAEA"></path> <path d="M29.6513 102.772L31.4734 103.769L31.0216 104.595C30.5813 105.4 30.0106 105.639 29.1843 105.187C28.8242 104.99 28.6586 104.789 28.5547 104.677L27.6036 105.561C27.748 105.75 28.0598 106.086 28.6742 106.422C29.8395 107.059 31.3448 106.974 32.1094 105.575L32.7234 104.452L34.037 105.171L34.6163 104.111L33.3027 103.393L37.1723 96.3167L35.9223 95.6331L32.0527 102.709L30.2306 101.713L29.6513 102.772Z" fill="#EAEAEA"></path> <path d="M29.5548 91.1464C28.0816 89.9728 26.4182 89.8518 25.2056 90.6764L26.0414 91.8363C26.9266 91.3064 27.8838 91.4515 28.7574 92.1474C30.0654 93.1893 30.2939 94.753 29.1084 96.3478L23.8435 92.1538L23.4673 92.626C21.3158 95.3269 22.184 97.5313 23.695 98.735C25.6593 100.3 28.1963 99.7891 29.9717 97.5604C31.7471 95.3317 31.6513 92.8164 29.5548 91.1464ZM28.341 97.3111C27.3665 98.3794 25.7673 98.7495 24.4924 97.7339C23.2836 96.771 23.2314 95.2475 24.2094 94.0198L28.341 97.3111Z" fill="#EAEAEA"></path> <path d="M25.6356 87.9302L24.6845 86.8694L20.3154 90.7864C19.3804 91.6246 18.0363 91.5 17.1336 90.4931C16.8797 90.2099 16.6717 89.8694 16.6252 89.7814L15.5464 90.7485C15.6463 90.8779 15.8871 91.1647 16.0282 91.322C16.7697 92.1491 17.8819 92.4492 18.7908 92.0884L18.8553 92.1603L17.8125 93.0952L18.7313 94.1201L25.6356 87.9302Z" fill="#EAEAEA"></path> <path d="M2.0066 55.8794L2.42543 52.0143L13.3967 53.2031L13.558 51.7147L2.58672 50.5258L3.00556 46.6606L1.68516 46.5176L0.686203 55.7363L2.0066 55.8794Z" fill="#EAEAEA"></path> <path d="M9.40067 43.8087C7.86949 43.2861 7.33449 42.0127 7.78882 40.6815C8.22169 39.4131 9.28285 38.9205 10.6769 39.3963L16.1617 41.2682L16.6219 39.9199L11.0457 38.0168C8.7889 37.2466 7.32245 38.0856 6.71018 39.8796C6.2383 41.2623 6.54626 42.2476 7.3143 42.969L7.2753 43.0833L2.97885 41.617L2.51868 42.9653L14.2196 46.9587L14.6798 45.6104L9.40067 43.8087Z" fill="#EAEAEA"></path> <path d="M19.7024 34.5957C20.6664 32.9775 20.5618 31.3131 19.581 30.2228L18.5446 31.2076C19.1891 32.0131 19.1745 32.9812 18.6029 33.9407C17.7471 35.3773 16.2286 35.8149 14.4883 34.8555L17.9332 29.0726L17.4146 28.7637C14.448 26.9964 12.381 28.1542 11.3923 29.8138C10.107 31.9714 10.9554 34.4162 13.4034 35.8745C15.8514 37.3328 18.3307 36.8985 19.7024 34.5957ZM13.4303 34.2252C12.2402 33.4038 11.6576 31.8692 12.4918 30.4688C13.2828 29.1411 14.7852 28.8838 16.1337 29.6871L13.4303 34.2252Z" fill="#EAEAEA"></path> <path d="M25.1004 26.8279L28.4803 23.9068C30.691 21.9962 30.6729 20.1288 29.4571 18.722C28.1781 17.2421 26.4602 17.3225 25.5542 18.0098L25.4752 17.9184C26.0896 17.0044 26.3443 15.8588 25.3021 14.653C24.1179 13.2827 22.2412 12.9578 20.2863 14.6473L17.016 17.4736L25.1004 26.8279ZM25.3647 24.8441L22.5541 21.592L24.8561 19.6025C26.0802 18.5446 27.5581 18.7036 28.3791 19.6536C29.0897 20.4758 29.0917 21.623 27.6119 22.9019L25.3647 24.8441ZM21.7014 20.6054L19.0172 17.4995L21.1548 15.6521C22.3971 14.5784 23.5137 14.7624 24.2242 15.5846C25.0768 16.5712 24.8256 17.9054 23.8025 18.7896L21.7014 20.6054Z" fill="#EAEAEA"></path> <path d="M36.7399 18.4871C38.3991 17.5957 39.1659 16.1146 38.8859 14.6752L37.4905 14.9862C37.6286 16.0085 37.118 16.8311 36.1342 17.3597C34.6611 18.1512 33.1339 17.745 32.1354 16.0268L38.065 12.841L37.7792 12.3092C36.1449 9.26734 33.7768 9.19646 32.075 10.1107C29.8628 11.2993 29.3321 13.8322 30.6807 16.3423C32.0293 18.8524 34.3787 19.7557 36.7399 18.4871ZM31.5525 14.9419C30.9547 13.6252 31.2449 12.0096 32.6808 11.2381C34.0422 10.5067 35.4629 11.0592 36.2058 12.4419L31.5525 14.9419Z" fill="#EAEAEA"></path> <path d="M45.2553 7.31221C44.4368 6.18899 43.2176 5.64615 41.4657 6.19287C39.5985 6.77555 38.5463 8.26753 39.0139 9.76586C39.3952 10.9876 40.3767 11.5793 42.1205 11.4525L43.7037 11.3379C44.6616 11.2666 45.2154 11.5617 45.406 12.1726C45.6434 12.9333 45.0309 13.8075 43.763 14.2031C42.6508 14.5502 41.8042 14.2895 41.2655 13.4141L40.0753 14.1397C40.8616 15.5449 42.3506 15.9593 44.1602 15.3946C46.2175 14.7526 47.2672 13.1918 46.7906 11.6646C46.4057 10.4314 45.3907 9.89442 43.6912 10.001L42.2766 10.0884C41.1468 10.1563 40.5646 9.9523 40.3524 9.27229C40.115 8.51159 40.7491 7.70658 41.8325 7.36849C43.0197 6.99802 43.7145 7.50212 44.1414 8.03924L45.2553 7.31221Z" fill="#EAEAEA"></path> <path d="M70.7215 8.57143C71.3512 4.71052 69.4798 1.93412 66.3577 1.42488C63.2356 0.915633 60.5788 2.95345 59.9491 6.81436C59.3193 10.6752 61.1908 13.4516 64.3129 13.9609C67.435 14.4701 70.0917 12.4323 70.7215 8.57143ZM69.2915 8.33819C68.7745 11.5079 66.7548 12.9401 64.5384 12.5786C62.3219 12.217 60.862 10.2173 61.379 7.0476C61.8961 3.87784 63.9157 2.44565 66.1322 2.80718C68.3486 3.1687 69.8085 5.16844 69.2915 8.33819Z" fill="#EAEAEA"></path> <path d="M77.9434 8.09098L76.0018 7.35414L76.336 6.47366C76.6615 5.61575 77.1941 5.3013 78.0746 5.63546C78.4584 5.78111 78.6499 5.9571 78.7682 6.05366L79.589 5.04791C79.4201 4.88049 79.0651 4.59081 78.4104 4.34234C77.1687 3.87109 75.6894 4.16202 75.1239 5.65207L74.6698 6.84863L73.27 6.31741L72.8416 7.44624L74.2414 7.97746L71.3797 15.518L72.7117 16.0235L75.5734 8.48296L77.515 9.21982L77.9434 8.09098Z" fill="#EAEAEA"></path> <path d="M84.5716 11.4497L82.7495 10.4533L83.2014 9.62707C83.6416 8.82196 84.2123 8.58359 85.0386 9.03543C85.3988 9.23238 85.5643 9.43299 85.6683 9.54487L86.6193 8.66129C86.475 8.47228 86.1631 8.13661 85.5487 7.80063C84.3834 7.16343 82.8782 7.24856 82.1135 8.6469L81.4995 9.76981L80.1859 9.0515L79.6066 10.1108L80.9202 10.8291L77.0507 17.9056L78.3007 18.5891L82.1703 11.5127L83.9923 12.509L84.5716 11.4497Z" fill="#EAEAEA"></path> <path d="M84.6682 23.0758C86.1414 24.2494 87.8048 24.3704 89.0174 23.5457L88.1816 22.3859C87.2964 22.9157 86.3392 22.7706 85.4656 22.0748C84.1576 21.0329 83.9291 19.4692 85.1146 17.8743L90.3795 22.0683L90.7557 21.5961C92.9072 18.8952 92.039 16.6909 90.528 15.4872C88.5637 13.9224 86.0267 14.4331 84.2513 16.6618C82.4759 18.8905 82.5717 21.4057 84.6682 23.0758ZM85.882 16.9111C86.8565 15.8427 88.4557 15.4726 89.7306 16.4882C90.9394 17.4512 90.9916 18.9746 90.0136 20.2023L85.882 16.9111Z" fill="#EAEAEA"></path> <path d="M88.5874 26.2919L89.5384 27.3526L93.9076 23.4356C94.8425 22.5974 96.1867 22.7222 97.0893 23.729C97.3432 24.0122 97.5512 24.3528 97.5977 24.4408L98.6765 23.4736C98.5767 23.3442 98.3358 23.0575 98.1948 22.9001C97.4533 22.0731 96.3411 21.773 95.4321 22.1338L95.3677 22.0618L96.4105 21.1269L95.4917 20.1021L88.5874 26.2919Z" fill="#EAEAEA"></path> <path d="M51.5468 4.2119L49.5868 4.49314L49.2713 2.29407L47.861 2.49643L48.1765 4.69549L46.7901 4.89442L46.9616 6.08957L48.348 5.89064L49.1711 11.6273C49.4009 13.2288 50.8015 13.8085 51.9966 13.637C52.5225 13.5615 52.8434 13.4179 53.0243 13.3188L52.5557 12.0931C52.4396 12.1341 52.2553 12.2094 51.9445 12.2539C51.323 12.3431 50.698 12.2376 50.5265 11.0425L49.7583 5.68828L51.7183 5.40704L51.5468 4.2119Z" fill="#EAEAEA"></path> </svg> 