<?xml version="1.0" encoding="UTF-8"?> <svg xmlns="http://www.w3.org/2000/svg" width="50" height="50" viewBox="0 0 50 50" fill="none"> <path d="M35.9587 8.6109C33.8277 8.6109 32.0938 10.3448 32.0938 12.4758C32.0938 14.6069 33.8277 16.3407 35.9587 16.3407C38.0898 16.3407 39.8237 14.6069 39.8237 12.4758C39.8237 10.3448 38.0898 8.6109 35.9587 8.6109ZM35.9587 14.873C34.6369 14.873 33.5615 13.7976 33.5615 12.4757C33.5615 11.154 34.6368 10.0785 35.9587 10.0785C37.2806 10.0785 38.356 11.1539 38.356 12.4757C38.356 13.7976 37.2806 14.873 35.9587 14.873Z" fill="#D99546"></path> <path d="M21.8688 35.225C19.3062 35.225 17.2211 37.31 17.2211 39.8727C17.2211 43.0752 21.1812 47.0722 21.3498 47.2408C21.4876 47.3785 21.6741 47.4558 21.8687 47.4558C22.0634 47.4558 22.25 47.3784 22.3877 47.2408C22.5561 47.0724 26.5164 43.0752 26.5164 39.8727C26.5166 37.3099 24.4315 35.225 21.8688 35.225ZM21.8688 45.6519C20.6612 44.3078 18.6889 41.7238 18.6889 39.8726C18.6889 38.1192 20.1153 36.6927 21.8688 36.6927C23.6224 36.6927 25.0488 38.1192 25.0488 39.8726C25.0489 41.7239 23.0764 44.3081 21.8688 45.6519Z" fill="#D99546"></path> <path d="M21.8688 37.6711C20.655 37.6711 19.6673 38.6587 19.6673 39.8726C19.6673 41.0866 20.655 42.0742 21.8688 42.0742C23.0827 42.0742 24.0704 41.0866 24.0704 39.8726C24.0704 38.6587 23.0827 37.6711 21.8688 37.6711ZM21.8688 40.6065C21.4642 40.6065 21.135 40.2773 21.135 39.8726C21.135 39.4679 21.4642 39.1387 21.8688 39.1387C22.2735 39.1387 22.6027 39.4679 22.6027 39.8726C22.6027 40.2773 22.2735 40.6065 21.8688 40.6065Z" fill="#D99546"></path> <path d="M31.5383 0.0557801C31.1634 -0.0988088 30.7345 0.079608 30.58 0.454215L27.0196 9.08229L13.9282 5.61991V0.734291C13.9282 0.329021 13.5997 0.000409318 13.1944 0.000409318C12.789 0.000409318 12.4605 0.329021 12.4605 0.734291V6.18504C12.4605 6.51804 12.6847 6.80925 13.0067 6.89441L27.2651 10.6656C27.3278 10.6821 27.3907 10.69 27.453 10.69C27.744 10.69 28.0156 10.5161 28.1312 10.236L31.9367 1.01407C32.0913 0.639468 31.9129 0.210369 31.5383 0.0557801Z" fill="#D99546"></path> <path d="M9.46819 29.2378L0.921729 26.9773C0.530227 26.8737 0.128372 27.1074 0.0245639 27.4991C-0.0790491 27.891 0.154642 28.2925 0.54634 28.3961L8.54661 30.5121V35.6652C8.54661 36.0705 8.87512 36.3991 9.28049 36.3991C9.68586 36.3991 10.0144 36.0705 10.0144 35.6652V29.9472C10.0144 29.6143 9.79016 29.323 9.46819 29.2378Z" fill="#D99546"></path> <path d="M9.28051 0.000442098C8.87514 0.000442098 8.54662 0.329053 8.54662 0.734324V4.19661L0.921741 2.17992C0.530239 2.07621 0.128384 2.31 0.0245759 2.70169C-0.0790371 3.09359 0.154654 3.49515 0.546352 3.59876L9.09281 5.85919C9.15473 5.8755 9.21771 5.88361 9.28051 5.88361C9.44066 5.88361 9.59847 5.83107 9.72816 5.73127C9.90873 5.5923 10.0144 5.37746 10.0144 5.14973V0.734324C10.0144 0.329053 9.68578 0.000442098 9.28051 0.000442098Z" fill="#D99546"></path> <path d="M9.28049 38.4539C8.87512 38.4539 8.54661 38.7825 8.54661 39.1878V49.2659C8.54661 49.6712 8.87512 49.9998 9.28049 49.9998C9.68586 49.9998 10.0144 49.6712 10.0144 49.2659V39.1878C10.0144 38.7825 9.68577 38.4539 9.28049 38.4539Z" fill="#D99546"></path> <path d="M9.46819 8.48874L0.921729 6.2283C0.530227 6.12459 0.128372 6.35838 0.0245639 6.75007C-0.0790491 7.14187 0.154642 7.54353 0.54634 7.64714L8.54671 9.76324V24.9457L0.921729 22.929C0.530227 22.8253 0.128372 23.0591 0.0245639 23.4508C-0.0790491 23.8426 0.154642 24.2442 0.54634 24.3478L9.0928 26.6083C9.15471 26.6246 9.2177 26.6327 9.28049 26.6327C9.44065 26.6327 9.59846 26.5801 9.72815 26.4803C9.90872 26.3414 10.0144 26.1266 10.0144 25.8988V9.19811C10.0144 8.8652 9.79016 8.57389 9.46819 8.48874Z" fill="#D99546"></path> <path d="M49.5458 6.68728C49.1709 6.5325 48.742 6.71101 48.5875 7.08572L45.7223 14.029L42.9019 13.283C42.9359 13.011 42.9548 12.7412 42.9548 12.4756C42.9548 8.61803 39.8163 5.47967 35.9588 5.47967C35.3657 5.47967 34.7898 5.55448 34.2394 5.69403L36.1707 1.01398C36.3252 0.63937 36.1468 0.210271 35.7723 0.0556824C35.3973 -0.0989065 34.9685 0.0794127 34.814 0.454117L32.3171 6.50457C30.3071 7.73513 28.9628 9.95113 28.9628 12.4755C28.9628 12.8679 29.0022 13.2687 29.0744 13.6742L13.382 9.52398C13.162 9.46588 12.9272 9.51304 12.7467 9.65201C12.5661 9.79097 12.4605 10.0057 12.4605 10.2335V13.9512C11.5381 14.8011 10.9589 16.0182 10.9589 17.3683C10.9589 18.7024 11.6463 20.1743 12.4605 21.4499V26.934C12.4605 27.267 12.6847 27.5582 13.0067 27.6434L38.2481 34.3196C38.3108 34.3361 38.3737 34.344 38.436 34.344C38.727 34.344 38.9986 34.1701 39.1142 33.89L45.3277 18.8328C45.4084 18.6372 45.4007 18.4164 45.3068 18.2269C45.2127 18.0373 45.0415 17.8976 44.837 17.8435L41.6493 17.0003C42.0332 16.25 42.3594 15.4818 42.59 14.7189L45.9681 15.6123C46.0308 15.6288 46.0937 15.6367 46.156 15.6367C46.447 15.6367 46.7186 15.4628 46.8342 15.1827L49.9444 7.64558C50.0988 7.27097 49.9204 6.84187 49.5458 6.68728ZM35.9587 6.94744C39.0071 6.94744 41.487 9.4274 41.487 12.4757C41.487 16.0479 37.4246 20.7779 35.9587 22.3683C34.4929 20.778 30.4304 16.0479 30.4304 12.4757C30.4304 9.4275 32.9104 6.94744 35.9587 6.94744ZM12.4267 17.3681C12.4267 15.6147 13.8531 14.1881 15.6066 14.1881C17.3602 14.1881 18.7866 15.6147 18.7866 17.3681C18.7866 19.2193 16.8142 21.8035 15.6066 23.1473C14.399 21.8033 12.4267 19.2192 12.4267 17.3681ZM43.6511 19.0478L38.0026 32.7364L13.9282 26.369V23.4455C14.5466 24.1907 15.0312 24.6796 15.0878 24.7363C15.2255 24.874 15.412 24.9512 15.6067 24.9512C15.8015 24.9512 15.988 24.8739 16.1257 24.7363C16.2942 24.5677 20.2544 20.5707 20.2544 17.3682C20.2544 14.8055 18.1693 12.7204 15.6066 12.7204C15.0149 12.7204 14.4492 12.8328 13.9282 13.0354V11.1865L29.5248 15.3115C31.0597 19.5352 35.2244 23.7379 35.4397 23.9533C35.5774 24.091 35.7639 24.1682 35.9586 24.1682C36.1534 24.1682 36.3399 24.0909 36.4776 23.9533C36.6408 23.7901 39.0708 21.3378 40.9068 18.322L43.6511 19.0478Z" fill="#D99546"></path> <path d="M49.4535 39.8135L40.9347 37.5604C40.5788 37.4664 40.209 37.6501 40.0687 37.99L35.5311 48.986C35.3765 49.3607 35.5549 49.7897 35.9294 49.9443C36.0211 49.9821 36.1159 50 36.2091 50C36.4974 50 36.7709 49.829 36.8878 49.5459L41.1804 39.1436L49.0782 41.2326C49.4702 41.3366 49.8717 41.1025 49.9754 40.7108C50.0789 40.3188 49.8452 39.9172 49.4535 39.8135Z" fill="#D99546"></path> <path d="M49.4535 35.765L43.2513 34.1246L49.1449 19.8424C49.2995 19.4678 49.1212 19.0387 48.7466 18.8841C48.3718 18.7295 47.9428 18.9078 47.7883 19.2825L41.5747 34.3397C41.494 34.5353 41.5017 34.7561 41.5956 34.9457C41.6897 35.1352 41.8609 35.275 42.0654 35.3291L49.078 37.1839C49.1409 37.2005 49.204 37.2085 49.2662 37.2085C49.591 37.2085 49.8881 36.991 49.9752 36.6621C50.0789 36.2705 49.8452 35.8688 49.4535 35.765Z" fill="#D99546"></path> <path d="M37.5871 36.9342C37.493 36.7446 37.3218 36.6049 37.1173 36.5508L13.382 30.273C13.162 30.2149 12.9272 30.2621 12.7467 30.401C12.5661 30.54 12.4605 30.7547 12.4605 30.9825V49.2659C12.4605 49.6712 12.789 49.9998 13.1944 49.9998C13.5997 49.9998 13.9282 49.6712 13.9282 49.2659V31.9356L35.9315 37.7553L31.2971 48.9859C31.1425 49.3605 31.3209 49.7896 31.6955 49.9442C31.7872 49.982 31.8819 49.9999 31.9752 49.9999C32.2634 49.9999 32.537 49.8289 32.6539 49.5458L37.6081 37.5401C37.6887 37.3446 37.681 37.1237 37.5871 36.9342Z" fill="#D99546"></path> <path d="M15.6066 15.1665C14.3928 15.1665 13.4051 16.1541 13.4051 17.3681C13.4051 18.582 14.3928 19.5696 15.6066 19.5696C16.8205 19.5696 17.8082 18.582 17.8082 17.3681C17.8082 16.1541 16.8206 15.1665 15.6066 15.1665ZM15.6066 18.102C15.202 18.102 14.8728 17.7728 14.8728 17.3681C14.8728 16.9634 15.202 16.6342 15.6066 16.6342C16.0113 16.6342 16.3405 16.9634 16.3405 17.3681C16.3405 17.7728 16.0113 18.102 15.6066 18.102Z" fill="#D99546"></path> </svg> 