<?xml version="1.0" encoding="UTF-8"?> <svg xmlns="http://www.w3.org/2000/svg" width="50" height="50" viewBox="0 0 50 50" fill="none"> <path d="M43.75 10.7392H42.7927L29.1141 3.4C27.3498 2.45352 25.359 1.95313 23.3569 1.95313H8.20313V0.976563C8.20313 0.437207 7.76582 0 7.22656 0H0.976563C0.437305 0 0 0.437207 0 0.976563V17.2852C0 17.8245 0.437305 18.2617 0.976563 18.2617H7.22656C7.76582 18.2617 8.20313 17.8245 8.20313 17.2852V15.7715H9.17969V29.689C9.17969 30.2282 9.61699 30.6655 10.1563 30.6655H43.75C44.2893 30.6655 44.7266 30.2282 44.7266 29.689V11.7157C44.7266 11.1764 44.2893 10.7392 43.75 10.7392ZM6.25 16.3086H1.95313V1.95313H6.25V16.3086ZM42.5532 12.6955C42.5786 12.6955 42.6037 12.6942 42.6287 12.6923H42.7734V14.9208C41.711 14.5964 40.8712 13.7575 40.5458 12.6955H42.5532ZM9.2625 13.8185H8.20313V3.90625H23.3569C25.0379 3.90625 26.7094 4.32637 28.1907 5.12109L38.6616 10.7392H26.0878C26.0664 10.7392 26.0455 10.741 26.0245 10.7424H23.9801C22.8238 10.7424 21.8831 11.683 21.8831 12.8393C21.8831 13.575 22.2759 14.2656 22.9084 14.6417L26.868 16.9957C27.3948 17.3089 27.5848 17.9796 27.3005 18.5226C27.0211 19.0565 26.3908 19.2845 25.8344 19.0524L16.9906 15.365C14.5292 14.3388 11.9291 13.8185 9.2625 13.8185ZM24.6843 23.5193C25.0181 23.906 25.451 24.1911 25.935 24.3551C25.9555 24.8763 26.3834 25.2929 26.9096 25.2929C27.436 25.2929 27.8641 24.876 27.8842 24.3544C28.9847 23.9791 29.7729 22.9875 29.7729 21.826C29.7729 21.0222 29.3949 20.3001 28.7977 19.8069C28.8829 19.688 28.961 19.5616 29.031 19.428C29.5809 18.3775 29.4716 17.1496 28.8402 16.2286C30.5711 16.9802 31.7851 18.7053 31.7851 20.7094C31.7851 23.4018 29.5946 25.5922 26.9022 25.5922C24.2099 25.5922 22.0194 23.4018 22.0194 20.7094C22.0194 20.3415 22.061 19.9804 22.1406 19.6281L25.0827 20.8549C25.4781 21.0199 25.8873 21.0985 26.2894 21.0985C26.4307 21.0985 26.571 21.0887 26.7097 21.0696C26.7742 21.083 26.8409 21.0902 26.9095 21.0902C27.4029 21.0902 27.8197 21.4272 27.8197 21.8261C27.8197 22.2249 27.4028 22.5619 26.9095 22.5619C26.6142 22.5619 26.3349 22.4427 26.1626 22.2431C25.8103 21.8349 25.1935 21.7895 24.7853 22.142C24.3771 22.4944 24.3317 23.1111 24.6843 23.5193ZM11.1328 28.7124V26.4839C12.1963 26.8086 13.0366 27.6489 13.3613 28.7124H11.1328ZM42.7734 28.7124H40.5449C40.8696 27.6489 41.71 26.8086 42.7734 26.4839V28.7124ZM42.7735 24.4769C40.6309 24.8774 38.9386 26.5697 38.538 28.7124H15.3684C14.9678 26.5697 13.2755 24.8774 11.1328 24.4769V15.868C12.8857 16.0484 14.5966 16.4829 16.239 17.1677L20.319 18.8688C20.1524 19.4647 20.0663 20.0806 20.0663 20.7096C20.0663 24.479 23.1329 27.5455 26.9022 27.5455C30.6716 27.5455 33.7382 24.4789 33.7382 20.7096C33.7382 16.9402 30.6716 13.8736 26.9022 13.8736C26.4776 13.8736 26.054 13.9153 25.6392 13.9929L23.9067 12.9629C23.8634 12.9371 23.8363 12.8896 23.8363 12.8393C23.8363 12.76 23.9008 12.6955 23.9802 12.6955H38.5386C38.9403 14.8366 40.6319 16.5274 42.7735 16.9278V24.4769Z" fill="#D99546"></path> <path d="M4.10791 12.8581H4.09512C3.55586 12.8581 3.11855 13.2953 3.11855 13.8347C3.11855 14.374 3.55586 14.8112 4.09512 14.8112H4.10791C4.64717 14.8112 5.08447 14.374 5.08447 13.8347C5.08447 13.2953 4.64727 12.8581 4.10791 12.8581Z" fill="#D99546"></path> <path d="M49.0234 31.7383H42.7734C42.2342 31.7383 41.7969 32.1756 41.7969 32.7148V34.6935L37.1894 33.1178C34.1779 32.0878 30.9232 32.2447 28.0247 33.5598L21.4633 36.5367C20.6228 36.9181 19.9855 37.6057 19.6693 38.473C19.3752 39.2796 19.3939 40.1458 19.718 40.933C19.4414 40.9294 19.1661 40.8608 18.9206 40.7332L10.6932 36.456C9.79453 35.9886 8.76973 35.906 7.80771 36.2228C6.8456 36.5397 6.0707 37.2154 5.62568 38.1253C4.76562 39.884 5.42256 42.0238 7.12129 42.997L17.015 48.664C18.2002 49.3429 19.545 49.6957 20.9006 49.6957C21.3211 49.6957 21.7429 49.6616 22.1608 49.5929L41.7969 46.365V49.0234C41.7969 49.5627 42.2342 50 42.7734 50H49.0234C49.5627 50 50 49.5627 50 49.0234V32.7148C50 32.1756 49.5627 31.7383 49.0234 31.7383ZM41.7969 44.3857L21.844 47.666C20.52 47.8836 19.15 47.6363 17.9859 46.9694L8.09219 41.3023C7.28359 40.8393 6.9709 39.8207 7.38027 38.9837C7.59209 38.5505 7.96084 38.2289 8.41885 38.0781C8.87666 37.9272 9.36436 37.9666 9.79219 38.1892L18.0198 42.4665C18.5492 42.7416 19.1443 42.8871 19.7408 42.8871H21.7285C21.7613 42.8871 21.7938 42.8854 21.8258 42.8822C22.1616 42.9908 22.5146 43.0496 22.8732 43.0496C23.2359 43.0496 23.6038 42.9914 23.9641 42.8695L30.5212 40.6509C31.032 40.4779 31.3061 39.9237 31.1333 39.4128C30.9604 38.9021 30.4063 38.6279 29.8952 38.8007L23.3381 41.0193C22.6405 41.2554 21.8756 40.9323 21.5583 40.268C21.3885 39.9123 21.3692 39.5126 21.5043 39.1423C21.6394 38.772 21.9113 38.4784 22.2703 38.3155L28.8317 35.3386C31.2751 34.2301 34.0187 34.0977 36.5572 34.966L41.7969 36.7577V44.3857ZM48.0469 48.0469H43.75V33.6914H48.0469V48.0469Z" fill="#D99546"></path> <path d="M45.9049 35.1888H45.8921C45.3528 35.1888 44.9155 35.6261 44.9155 36.1653C44.9155 36.7046 45.3527 37.1419 45.8921 37.1419H45.9049C46.4441 37.1419 46.8814 36.7046 46.8814 36.1653C46.8814 35.6261 46.4441 35.1888 45.9049 35.1888Z" fill="#D99546"></path> <path d="M17.836 19.7375H15.772C15.2327 19.7375 14.7954 20.1747 14.7954 20.7141C14.7954 21.2534 15.2327 21.6906 15.772 21.6906H17.836C18.3753 21.6906 18.8126 21.2534 18.8126 20.7141C18.8126 20.1747 18.3753 19.7375 17.836 19.7375Z" fill="#D99546"></path> <path d="M38.0361 19.7375H35.9721C35.4328 19.7375 34.9955 20.1747 34.9955 20.7141C34.9955 21.2534 35.4327 21.6906 35.9721 21.6906H38.0361C38.5754 21.6906 39.0127 21.2534 39.0127 20.7141C39.0127 20.1747 38.5754 19.7375 38.0361 19.7375Z" fill="#D99546"></path> <path d="M22.2367 5.85938H14.9964C14.4571 5.85938 14.0198 6.29658 14.0198 6.83594C14.0198 7.37529 14.4571 7.8125 14.9964 7.8125H22.2367C22.776 7.8125 23.2133 7.37529 23.2133 6.83594C23.2133 6.29658 22.776 5.85938 22.2367 5.85938Z" fill="#D99546"></path> <path d="M12.246 6.14551C12.0645 5.96387 11.8134 5.85938 11.5557 5.85938C11.2988 5.85938 11.0469 5.96387 10.8652 6.14551C10.6836 6.32715 10.5791 6.5791 10.5791 6.83594C10.5791 7.09277 10.6835 7.34473 10.8652 7.52637C11.047 7.70801 11.2988 7.8125 11.5557 7.8125C11.8125 7.8125 12.0645 7.70801 12.246 7.52637C12.4286 7.34473 12.5322 7.09277 12.5322 6.83594C12.5322 6.5791 12.4286 6.32715 12.246 6.14551Z" fill="#D99546"></path> </svg> 