<?xml version="1.0" encoding="UTF-8"?> <svg xmlns="http://www.w3.org/2000/svg" width="50" height="54" viewBox="0 0 50 54" fill="none"> <path d="M41.0772 27.6455C40.652 27.5674 40.2438 27.849 40.1658 28.2745C40.0878 28.6999 40.3694 29.1079 40.7948 29.1859C45.2211 29.9976 48.4336 33.8549 48.4336 38.3579C48.4336 42.8842 45.1919 46.667 40.9085 47.508C40.9001 47.5093 40.8915 47.5099 40.883 47.5114C40.2945 47.6252 39.6974 47.683 39.1086 47.683C33.9667 47.683 29.7834 43.4997 29.7834 38.3579C29.7834 33.7962 33.0688 29.9841 37.4223 29.1859C37.8477 29.1079 38.1293 28.6999 38.0513 28.2745C37.9733 27.849 37.5647 27.5671 37.1399 27.6455C34.6438 28.1031 32.4799 29.3915 30.9073 31.1921L26.0381 29.3063V26.5885C27.8026 25.2377 29.0194 23.2075 29.2956 20.8919C31.3928 20.7988 32.9543 19.1209 32.9543 17.1259C32.9543 16.2015 32.6147 15.3198 32.0109 14.6392V11.2021C32.0111 5.02517 26.986 0 20.8093 0C14.6326 0 9.60731 5.02518 9.60731 11.202V14.728C8.99668 15.4029 8.66432 16.2389 8.66432 17.1258C8.66432 19.1186 10.2226 20.7985 12.3226 20.8917C12.5977 23.2219 13.8276 25.3365 15.7647 26.7197V29.3062L4.75975 33.5727C4.75484 33.5746 4.74993 33.5766 4.74502 33.5785C4.55133 33.6582 0 35.5904 0 40.9101V51.6875C0 52.6657 0.795762 53.4615 1.77405 53.4615C2.25958 53.4615 39.5333 53.4615 40.0494 53.4615C41.0228 53.4615 41.8148 52.6696 41.8148 51.696V48.9092C46.5155 47.7027 50 43.4298 50 38.3581C50 33.0987 46.2474 28.5935 41.0772 27.6455ZM28.3288 31.873L25.5075 37.5271C25.4693 37.4999 24.7615 36.997 22.0353 35.0609C24.0371 32.5901 23.3667 33.4176 25.5043 30.779L28.3288 31.873ZM22.9217 37.612L22.1151 38.826H19.694L18.8875 37.612L20.9046 36.1794L22.9217 37.612ZM17.3311 29.5579V27.6032C18.3894 28.0584 19.6447 28.3242 20.9203 28.3242C22.1494 28.3242 23.3664 28.055 24.4719 27.5392V29.5653L20.9045 33.9687L17.3311 29.5579ZM30.6305 18.7803C30.2745 19.0866 29.8363 19.269 29.3576 19.3165V14.9356C31.3634 15.1298 32.0637 17.5478 30.6305 18.7803ZM12.2613 19.3165C11.0571 19.1973 10.2308 18.233 10.2308 17.1259C10.2308 16.0158 11.1946 15.1461 12.2613 14.9712V19.3165ZM12.2869 13.3886C11.9219 13.4219 11.4881 13.5296 11.1737 13.6521V11.202C11.1737 5.88891 15.4961 1.56636 20.8092 1.56636C26.1221 1.56636 30.4448 5.88881 30.4448 11.202V13.5834C30.0993 13.4605 29.7346 13.3861 29.3576 13.3637C29.3576 12.4225 29.472 12.6903 26.7433 9.76289C26.5252 9.52879 26.2692 9.18536 25.7279 9.07165C25.3515 8.9925 24.9474 9.05964 24.6044 9.28382C21.5269 11.2942 17.665 12.4227 13.9554 12.1796C13.0489 12.1198 12.4266 12.6353 12.2869 13.3886ZM13.8276 19.887C13.8276 19.231 13.8276 14.4218 13.8276 13.7414C17.8128 14.0083 22.0175 12.8286 25.4093 10.6287C26.8245 12.1493 27.5858 12.9385 27.7913 13.2032C27.7913 21.0154 27.7931 19.6253 27.7869 20.0587C27.6956 23.7507 24.6689 26.7578 20.9203 26.7578C16.7499 26.7579 13.8276 23.5425 13.8276 19.887ZM16.3001 30.781L19.7698 35.0638C18.6395 35.8665 16.8896 37.1096 16.3014 37.5273L13.4801 31.8732L16.3001 30.781ZM8.81645 51.8953V42.5796C8.81645 42.1471 8.46592 41.7965 8.03333 41.7965C7.60073 41.7965 7.2502 42.1471 7.2502 42.5796V51.8953H1.77405C1.6595 51.8953 1.56636 51.802 1.56636 51.6876V40.9103C1.56636 36.6968 5.1251 35.1191 5.33582 35.0295L12.0129 32.4409L14.9501 38.3275C15.1421 38.7123 15.4916 38.9929 15.9088 39.0972C16.6721 39.2881 17.1266 38.8625 17.6096 38.5194L18.4501 39.7844L16.4003 51.8953H8.81645ZM32.9989 51.8952H25.4088L24.7059 47.7418C24.6339 47.3154 24.2309 47.0286 23.8031 47.1002C23.3767 47.1724 23.0895 47.5767 23.1617 48.0031L23.8205 51.8952H17.989L19.9359 40.3923H21.8736L22.5431 44.3482C22.6152 44.7747 23.0188 45.0619 23.446 44.9898C23.8725 44.9176 24.1596 44.5133 24.0874 44.087L23.3592 39.7844L24.1997 38.5194L24.6928 38.8697C25.4284 39.3923 26.4565 39.134 26.8589 38.3277L29.796 32.4414L29.9297 32.4931C28.841 34.1964 28.2172 36.2237 28.2172 38.3582C28.2172 42.1011 30.1152 45.4088 32.999 47.37L32.9989 51.8952ZM40.2487 51.6961C40.2487 51.806 40.1594 51.8953 40.0496 51.8953H34.5653V48.2554C35.9489 48.8931 37.4879 49.2497 39.1088 49.2497C39.4938 49.2497 39.8739 49.2293 40.2488 49.1901L40.2487 51.6961Z" fill="#D99546"></path> <path d="M42.8154 36.0439C42.5134 35.7342 42.0178 35.7278 41.7078 36.0297L38.6289 39.0309L37.339 37.7666C37.0302 37.4639 36.5343 37.4688 36.2315 37.7778C35.9288 38.0866 35.9337 38.5825 36.2425 38.8853L38.0791 40.6852C38.2314 40.8344 38.4293 40.909 38.6273 40.909C38.8246 40.909 39.0218 40.835 39.1739 40.6867L42.8011 37.1514C43.1109 36.8494 43.1171 36.3536 42.8154 36.0439Z" fill="#D99546"></path> <path d="M39.1087 30.2214C34.6221 30.2214 30.972 33.8715 30.972 38.3581C30.972 42.8447 34.6221 46.4948 39.1087 46.4948C43.5953 46.4948 47.2454 42.8447 47.2454 38.3581C47.2454 33.8715 43.5953 30.2214 39.1087 30.2214ZM39.1087 44.9284C35.4858 44.9284 32.5383 41.9809 32.5383 38.358C32.5383 34.7352 35.4857 31.7877 39.1087 31.7877C42.7315 31.7877 45.679 34.7352 45.679 38.358C45.679 41.9809 42.7315 44.9284 39.1087 44.9284Z" fill="#D99546"></path> </svg> 