<?xml version="1.0" encoding="UTF-8"?> <svg xmlns="http://www.w3.org/2000/svg" width="210" height="213" viewBox="0 0 210 213" fill="none"> <path d="M192.944 108.198L192.896 107.131C193.29 107.033 193.651 106.873 193.978 106.65C194.31 106.431 194.595 106.16 194.835 105.838C195.075 105.517 195.256 105.156 195.378 104.756C195.501 104.357 195.552 103.928 195.531 103.47C195.498 102.736 195.277 102.074 194.868 101.486C194.459 100.901 193.876 100.444 193.118 100.114C192.364 99.7872 191.451 99.6478 190.381 99.6956C189.302 99.7437 188.402 99.9639 187.68 100.356C186.958 100.753 186.42 101.26 186.064 101.879C185.713 102.501 185.554 103.179 185.586 103.913C185.607 104.371 185.696 104.794 185.853 105.181C186.011 105.568 186.222 105.912 186.485 106.211C186.753 106.51 187.061 106.754 187.411 106.943C187.761 107.136 188.136 107.263 188.537 107.325L188.584 108.392C188.047 108.321 187.541 108.166 187.068 107.925C186.598 107.688 186.183 107.377 185.82 106.991C185.458 106.609 185.169 106.163 184.953 105.654C184.737 105.144 184.615 104.579 184.587 103.958C184.544 102.982 184.749 102.104 185.204 101.326C185.662 100.547 186.328 99.9219 187.202 99.4506C188.076 98.9832 189.12 98.7224 190.335 98.6682C191.549 98.614 192.613 98.7808 193.525 99.1686C194.437 99.5602 195.154 100.123 195.676 100.859C196.202 101.593 196.487 102.449 196.53 103.425C196.558 104.046 196.487 104.62 196.317 105.147C196.151 105.674 195.903 106.143 195.572 106.556C195.246 106.973 194.859 107.32 194.413 107.598C193.967 107.879 193.477 108.079 192.944 108.198Z" fill="white"></path> <path d="M184.823 110.66L193.523 111.342L193.444 112.351L189.53 112.044L189.456 112.989L193.116 116.531L193.014 117.834L189.101 114.016L184.307 117.23L184.409 115.928L188.479 113.226L188.578 111.969L184.743 111.668L184.823 110.66Z" fill="white"></path> <path d="M180.863 118.372L192.651 120.622L192.466 121.587L190.831 121.275L190.809 121.392C191.043 121.56 191.274 121.774 191.502 122.034C191.734 122.294 191.91 122.613 192.031 122.991C192.151 123.372 192.161 123.825 192.061 124.35C191.926 125.057 191.622 125.639 191.149 126.096C190.679 126.558 190.083 126.872 189.361 127.039C188.642 127.211 187.842 127.212 186.96 127.044C186.074 126.875 185.327 126.578 184.718 126.153C184.108 125.732 183.667 125.22 183.397 124.617C183.126 124.018 183.057 123.368 183.19 122.669C183.289 122.152 183.465 121.736 183.717 121.422C183.969 121.111 184.252 120.874 184.565 120.71C184.881 120.55 185.18 120.438 185.462 120.372L185.479 120.283L180.674 119.366L180.863 118.372ZM188.171 120.785C187.479 120.653 186.846 120.638 186.271 120.74C185.699 120.847 185.224 121.065 184.845 121.394C184.469 121.727 184.228 122.171 184.122 122.725C184.014 123.294 184.078 123.804 184.316 124.255C184.557 124.709 184.926 125.09 185.423 125.397C185.919 125.708 186.5 125.926 187.166 126.054C187.825 126.179 188.438 126.19 189.005 126.086C189.572 125.986 190.047 125.768 190.431 125.433C190.819 125.098 191.068 124.644 191.177 124.071C191.283 123.513 191.223 123.01 190.996 122.562C190.773 122.114 190.417 121.738 189.928 121.432C189.441 121.131 188.856 120.916 188.171 120.785Z" fill="white"></path> <path d="M180.954 131.492C181.183 130.774 181.568 130.197 182.108 129.761C182.648 129.329 183.288 129.06 184.029 128.954C184.774 128.85 185.569 128.932 186.414 129.202C187.265 129.473 187.965 129.867 188.512 130.383C189.062 130.901 189.431 131.491 189.617 132.155C189.805 132.823 189.785 133.517 189.556 134.235C189.327 134.953 188.943 135.528 188.403 135.961C187.864 136.393 187.222 136.661 186.477 136.766C185.731 136.874 184.932 136.792 184.08 136.52C183.236 136.251 182.54 135.858 181.993 135.342C181.449 134.827 181.083 134.235 180.895 133.567C180.705 132.902 180.725 132.211 180.954 131.492ZM181.836 131.774C181.652 132.351 181.652 132.89 181.834 133.389C182.017 133.889 182.333 134.324 182.784 134.694C183.233 135.068 183.768 135.354 184.389 135.551C185.01 135.749 185.613 135.827 186.2 135.783C186.785 135.743 187.298 135.573 187.74 135.272C188.182 134.972 188.495 134.533 188.679 133.955C188.862 133.381 188.861 132.842 188.676 132.338C188.489 131.837 188.17 131.4 187.717 131.025C187.263 130.653 186.725 130.369 186.105 130.171C185.484 129.973 184.883 129.894 184.301 129.936C183.718 129.98 183.208 130.154 182.77 130.455C182.332 130.757 182.02 131.196 181.836 131.774Z" fill="white"></path> <path d="M179.572 136.354L180.443 136.746L180.331 136.995C180.203 137.278 180.152 137.529 180.178 137.749C180.206 137.973 180.324 138.191 180.532 138.401C180.741 138.611 181.052 138.839 181.465 139.083C181.878 139.327 182.407 139.611 183.05 139.935L186.698 141.784L184.419 146.84L176.463 143.254L176.881 142.327L183.967 145.52L185.433 142.267L182.336 140.691C181.704 140.369 181.159 140.061 180.702 139.767C180.242 139.477 179.884 139.179 179.628 138.872C179.37 138.569 179.221 138.24 179.181 137.886C179.14 137.535 179.221 137.135 179.423 136.686L179.572 136.354Z" fill="white"></path> <path d="M179.403 149.091L178.106 151.288C177.607 152.133 177.017 152.664 176.334 152.881C175.652 153.098 174.96 153 174.259 152.586C173.792 152.311 173.445 151.967 173.217 151.556C172.99 151.144 172.894 150.683 172.932 150.173C172.972 149.665 173.159 149.128 173.492 148.564L175.217 145.643L182.732 150.08L182.218 150.951L175.525 146.999L174.314 149.049C174 149.581 173.874 150.085 173.936 150.561C173.998 151.038 174.264 151.415 174.734 151.692C175.213 151.975 175.68 152.031 176.133 151.858C176.587 151.686 176.97 151.334 177.284 150.803L178.581 148.606L179.403 149.091Z" fill="white"></path> <path d="M177.358 157.087L178.124 157.656L174.058 163.13L173.292 162.561L175.013 160.244L168.774 155.609L169.377 154.797L175.616 159.432L177.358 157.087Z" fill="white"></path> <path d="M163.185 162.026C163.738 161.429 164.356 161.041 165.039 160.863C165.724 160.687 166.424 160.709 167.14 160.929C167.856 161.154 168.537 161.567 169.184 162.167C169.829 162.765 170.291 163.413 170.572 164.113C170.853 164.818 170.941 165.512 170.835 166.194C170.729 166.881 170.42 167.501 169.908 168.054C169.586 168.401 169.211 168.676 168.785 168.88C168.361 169.086 167.9 169.196 167.402 169.209C166.904 169.228 166.388 169.129 165.855 168.913C165.324 168.7 164.791 168.345 164.255 167.848L163.889 167.508L168.526 162.509L169.18 163.116L165.246 167.356C165.657 167.737 166.103 167.997 166.586 168.134C167.068 168.277 167.542 168.29 168.006 168.173C168.468 168.06 168.877 167.811 169.233 167.428C169.609 167.022 169.832 166.565 169.901 166.056C169.97 165.547 169.908 165.04 169.715 164.535C169.52 164.033 169.212 163.585 168.793 163.191L168.401 162.827C167.893 162.356 167.367 162.031 166.825 161.853C166.282 161.681 165.756 161.66 165.246 161.792C164.737 161.923 164.276 162.211 163.863 162.656C163.583 162.958 163.384 163.267 163.267 163.583C163.148 163.901 163.095 164.211 163.109 164.513C163.123 164.821 163.189 165.104 163.306 165.362L162.423 165.854C162.244 165.507 162.144 165.116 162.122 164.683C162.098 164.252 162.17 163.807 162.338 163.348C162.505 162.894 162.788 162.454 163.185 162.026Z" fill="white"></path> <path d="M148.096 176.331L146.167 173.454L146.972 172.86L148.461 174.875L149.338 174.226L149.905 174.994L148.096 176.331ZM161.79 175.877L160.977 176.478L156.358 170.226L153.479 172.354L158.098 178.605L157.285 179.206L152.665 172.955L149.786 175.082L154.406 181.333L153.592 181.934L148.406 174.915L156.604 168.858L161.79 175.877Z" fill="white"></path> <path d="M142.725 177.948C143.387 177.587 144.064 177.436 144.756 177.495C145.445 177.555 146.093 177.803 146.702 178.239C147.313 178.679 147.83 179.288 148.254 180.066C148.682 180.851 148.915 181.619 148.954 182.37C148.994 183.125 148.852 183.806 148.528 184.414C148.202 185.027 147.709 185.515 147.047 185.875C146.385 186.236 145.71 186.386 145.021 186.326C144.332 186.266 143.683 186.016 143.072 185.576C142.458 185.139 141.938 184.528 141.51 183.743C141.085 182.964 140.854 182.2 140.816 181.448C140.779 180.701 140.923 180.02 141.249 179.407C141.572 178.795 142.064 178.309 142.725 177.948ZM143.169 178.761C142.637 179.051 142.264 179.44 142.051 179.927C141.837 180.415 141.766 180.948 141.835 181.527C141.902 182.107 142.091 182.684 142.403 183.256C142.714 183.828 143.097 184.301 143.551 184.675C144.002 185.05 144.491 185.282 145.018 185.37C145.545 185.458 146.074 185.357 146.606 185.067C147.135 184.779 147.507 184.389 147.722 183.896C147.933 183.406 148.005 182.868 147.936 182.284C147.865 181.702 147.673 181.125 147.361 180.553C147.05 179.981 146.669 179.509 146.22 179.136C145.768 178.766 145.28 178.538 144.755 178.453C144.229 178.369 143.701 178.471 143.169 178.761Z" fill="white"></path> <path d="M136.099 194.315L135.37 193.913C135.507 193.61 135.714 193.357 135.991 193.153C136.267 192.953 136.592 192.773 136.968 192.611C137.341 192.451 137.741 192.273 138.169 192.079C138.783 191.798 139.233 191.429 139.52 190.972C139.809 190.519 139.949 189.974 139.94 189.338C139.93 188.706 139.793 187.984 139.531 187.171L139.425 187.213C139.374 187.873 139.159 188.446 138.782 188.93C138.4 189.416 137.912 189.778 137.317 190.014C136.694 190.262 136.074 190.332 135.456 190.223C134.835 190.119 134.264 189.83 133.742 189.357C133.217 188.889 132.787 188.235 132.453 187.394C132.122 186.563 131.981 185.781 132.028 185.049C132.076 184.321 132.296 183.685 132.688 183.142C133.079 182.599 133.627 182.188 134.331 181.907C135.038 181.626 135.724 181.545 136.387 181.665C137.048 181.789 137.653 182.117 138.203 182.648C138.75 183.185 139.213 183.928 139.591 184.878L139.929 185.728C140.681 187.618 140.948 189.159 140.729 190.351C140.51 191.543 139.787 192.407 138.562 192.943C138.166 193.117 137.803 193.266 137.473 193.389C137.144 193.515 136.862 193.646 136.626 193.781C136.392 193.919 136.216 194.097 136.099 194.315ZM134.673 182.768C134.149 182.977 133.747 183.289 133.469 183.706C133.191 184.126 133.046 184.62 133.031 185.188C133.013 185.758 133.134 186.369 133.393 187.02C133.65 187.667 133.977 188.177 134.374 188.549C134.767 188.923 135.202 189.156 135.679 189.247C136.156 189.339 136.649 189.283 137.16 189.08C137.561 188.921 137.891 188.7 138.149 188.417C138.406 188.14 138.591 187.816 138.704 187.445C138.817 187.073 138.858 186.674 138.827 186.246C138.795 185.818 138.691 185.377 138.514 184.921C138.123 183.939 137.586 183.254 136.901 182.866C136.215 182.483 135.472 182.45 134.673 182.768Z" fill="white"></path> <path d="M125.616 182.58L126.36 185.937L125.622 186.1C125.483 186.348 125.372 186.608 125.288 186.878C125.205 187.149 125.147 187.449 125.115 187.778C125.081 188.111 125.074 188.491 125.094 188.917C125.116 189.347 125.164 189.843 125.238 190.405L125.718 194.04L120.675 195.158L118.993 187.569L117.729 187.849L116.985 184.493L117.972 184.275L118.509 186.699L125.161 185.225L124.623 182.801L125.616 182.58ZM124.485 186.352L119.981 187.35L121.456 194.007L124.59 193.312L124.261 190.621C124.152 189.706 124.105 188.898 124.12 188.196C124.135 187.495 124.257 186.88 124.485 186.352Z" fill="white"></path> <path d="M115.758 187.068L116.951 195.713L115.944 195.852L114.75 187.207L115.758 187.068ZM116.644 197.27C116.85 197.242 117.036 197.287 117.202 197.405C117.368 197.528 117.465 197.688 117.492 197.887C117.52 198.086 117.47 198.265 117.343 198.424C117.216 198.587 117.049 198.682 116.843 198.711C116.637 198.739 116.45 198.692 116.284 198.57C116.119 198.451 116.022 198.293 115.995 198.094C115.968 197.895 116.017 197.714 116.144 197.551C116.271 197.392 116.438 197.298 116.644 197.27Z" fill="white"></path> <path d="M112.567 189.754L111.496 189.823C111.436 189.36 111.212 189.01 110.825 188.772C110.438 188.535 109.942 188.436 109.337 188.475C108.709 188.515 108.201 188.688 107.81 188.994C107.42 189.303 107.242 189.728 107.277 190.269C107.298 190.598 107.394 190.878 107.564 191.11C107.731 191.343 107.951 191.518 108.224 191.637C108.494 191.761 108.795 191.813 109.128 191.796L110.648 191.699L110.707 192.623L109.204 192.719C108.688 192.782 108.304 192.947 108.052 193.214C107.799 193.485 107.686 193.824 107.712 194.232C107.742 194.697 107.93 195.059 108.277 195.318C108.624 195.58 109.079 195.693 109.642 195.657C110.213 195.621 110.679 195.451 111.039 195.147C111.399 194.843 111.576 194.471 111.571 194.031L112.631 193.963C112.643 194.437 112.528 194.862 112.286 195.238C112.044 195.618 111.705 195.924 111.269 196.157C110.828 196.39 110.32 196.525 109.746 196.562C109.156 196.599 108.637 196.526 108.189 196.342C107.741 196.159 107.386 195.891 107.124 195.539C106.863 195.192 106.717 194.787 106.688 194.326C106.657 193.846 106.764 193.443 107.009 193.116C107.25 192.793 107.571 192.556 107.971 192.405L107.966 192.32C107.654 192.306 107.374 192.21 107.128 192.032C106.877 191.854 106.674 191.619 106.519 191.325C106.363 191.031 106.274 190.701 106.25 190.335C106.218 189.82 106.323 189.36 106.566 188.954C106.81 188.551 107.165 188.226 107.631 187.98C108.094 187.734 108.637 187.591 109.261 187.552C109.862 187.513 110.403 187.579 110.885 187.749C111.367 187.924 111.757 188.181 112.056 188.523C112.351 188.868 112.522 189.279 112.567 189.754Z" fill="white"></path> <path d="M98.3631 192.561L98.4013 191.607L103.528 191.812L103.49 192.766L98.3631 192.561ZM103.084 196.645L103.433 187.925L104.444 187.965L104.095 196.686L103.084 196.645ZM97.4637 196.42L97.8129 187.7L98.8235 187.74L98.4742 196.46L97.4637 196.42Z" fill="white"></path> <path d="M92.6927 186.862C93.2132 186.941 93.6735 187.114 94.0734 187.382C94.4728 187.653 94.7706 188.001 94.9667 188.425C95.1622 188.853 95.2179 189.345 95.1337 189.899C95.0689 190.326 94.9338 190.673 94.7284 190.941C94.523 191.208 94.2582 191.413 93.9339 191.556C93.6096 191.698 93.237 191.793 92.8161 191.84C92.3951 191.887 91.9367 191.904 91.4407 191.89C90.9485 191.876 90.5324 191.867 90.1923 191.861C89.8484 191.855 89.581 191.887 89.3903 191.958C89.1995 192.028 89.0876 192.172 89.0546 192.39L89.0239 192.592C88.9346 193.18 89.0404 193.669 89.3412 194.06C89.6378 194.453 90.1137 194.7 90.7691 194.799C91.3908 194.894 91.919 194.834 92.3537 194.62C92.7847 194.406 93.107 194.126 93.3205 193.779L94.2179 194.265C93.9515 194.708 93.6247 195.043 93.2375 195.272C92.8498 195.504 92.433 195.65 91.9874 195.708C91.5411 195.771 91.0989 195.769 90.6607 195.702C90.3312 195.652 89.995 195.557 89.6523 195.417C89.3059 195.276 88.9954 195.076 88.7207 194.816C88.4454 194.559 88.241 194.228 88.1075 193.82C87.9733 193.417 87.9501 192.927 88.0376 192.35L88.9272 186.491L89.9271 186.643L89.7199 188.008L89.7817 188.017C89.9402 187.781 90.1556 187.561 90.4279 187.357C90.7002 187.153 91.0259 187.001 91.405 186.902C91.7841 186.802 92.2133 186.789 92.6927 186.862ZM92.4188 187.757C91.887 187.676 91.4085 187.724 90.9832 187.901C90.5579 188.078 90.2108 188.345 89.942 188.703C89.6688 189.063 89.4964 189.48 89.4248 189.952L89.2354 191.199C89.3211 191.139 89.4562 191.094 89.6408 191.065C89.8216 191.035 90.0296 191.015 90.2649 191.004C90.4958 190.997 90.7259 190.996 90.9552 191C91.1844 191.004 91.3906 191.009 91.5738 191.014C92.0697 191.028 92.4996 190.997 92.8635 190.922C93.2274 190.847 93.5181 190.711 93.7357 190.514C93.9528 190.321 94.0878 190.05 94.1406 189.702C94.2202 189.178 94.0947 188.743 93.764 188.398C93.4327 188.056 92.9843 187.843 92.4188 187.757Z" fill="white"></path> <path d="M85.3215 193.683L85.0795 194.607L78.484 192.878L78.726 191.955L81.5181 192.687L83.4886 185.168L84.4669 185.424L82.4964 192.943L85.3215 193.683Z" fill="white"></path> <path d="M77.2308 184.777L70.3085 189.92L69.1794 189.485L72.3195 181.342L73.2631 181.706L70.6402 188.508L77.5466 183.358L78.6916 183.8L75.5515 191.942L74.6079 191.578L77.2308 184.777Z" fill="white"></path> <path d="M67.0523 178.545C67.745 178.905 68.2587 179.391 68.5935 180.004C68.925 180.615 69.0758 181.295 69.0461 182.044C69.0163 182.792 68.8018 183.551 68.4024 184.321C67.9995 185.098 67.4981 185.715 66.8984 186.172C66.2953 186.627 65.6492 186.894 64.9602 186.972C64.2695 187.053 63.5862 186.918 62.9104 186.568C62.3925 186.299 61.9758 185.955 61.6601 185.535C61.3427 185.119 61.142 184.658 61.058 184.154C60.9689 183.651 61.0138 183.141 61.1926 182.623L62.1005 183.094C61.9679 183.58 62.0012 184.071 62.2006 184.567C62.3948 185.065 62.7676 185.457 63.319 185.743C63.8133 185.999 64.3202 186.091 64.8397 186.019C65.3574 185.951 65.8477 185.734 66.3106 185.368C66.7684 185.004 67.1594 184.509 67.4838 183.883C67.81 183.255 67.9944 182.644 68.0371 182.052C68.078 181.463 67.9808 180.934 67.7455 180.467C67.5068 179.997 67.1336 179.631 66.6259 179.367C66.2829 179.19 65.9371 179.091 65.5884 179.073C65.2345 179.055 64.8999 179.116 64.5844 179.256C64.2655 179.393 63.987 179.609 63.7488 179.904L62.841 179.433C63.1507 179.001 63.5334 178.67 63.9891 178.441C64.4397 178.214 64.9293 178.106 65.4577 178.115C65.9828 178.123 66.5143 178.266 67.0523 178.545Z" fill="white"></path> <path d="M58.9016 180.288L56.7738 178.88C55.9555 178.339 55.4553 177.722 55.2731 177.029C55.0909 176.337 55.2245 175.651 55.6738 174.971C55.9726 174.52 56.3333 174.191 56.7559 173.984C57.1786 173.778 57.6437 173.706 58.1514 173.769C58.6569 173.836 59.183 174.05 59.7296 174.411L62.5588 176.283L57.7443 183.562L56.9007 183.004L61.1886 176.521L59.203 175.208C58.688 174.867 58.1911 174.715 57.7121 174.753C57.2332 174.79 56.8433 175.037 56.5424 175.491C56.2352 175.956 56.156 176.419 56.3048 176.881C56.4535 177.342 56.7854 177.744 57.3004 178.084L59.4282 179.491L58.9016 180.288Z" fill="white"></path> <path d="M39.932 173.854L39.9753 173.023C40.3073 173.014 40.6257 173.089 40.9305 173.25C41.2299 173.411 41.5345 173.625 41.844 173.893C42.1508 174.158 42.4852 174.441 42.8472 174.741C43.3678 175.171 43.8962 175.415 44.4324 175.474C44.966 175.536 45.5174 175.424 46.0864 175.139C46.6501 174.853 47.2404 174.415 47.8574 173.825L47.7736 173.748C47.157 173.99 46.5483 174.047 45.9473 173.918C45.3435 173.787 44.8054 173.506 44.333 173.074C43.8382 172.621 43.5049 172.093 43.3331 171.49C43.1559 170.886 43.1661 170.246 43.3637 169.57C43.556 168.894 43.9576 168.222 44.5684 167.553C45.1716 166.894 45.8129 166.425 46.4922 166.148C47.169 165.874 47.8371 165.794 48.4964 165.91C49.1558 166.025 49.765 166.338 50.3241 166.849C50.886 167.363 51.2579 167.944 51.4398 168.593C51.6163 169.242 51.5854 169.93 51.3471 170.656C51.1035 171.383 50.6367 172.124 49.9466 172.879L49.3293 173.554C47.9567 175.055 46.6865 175.967 45.5186 176.29C44.3507 176.613 43.258 176.34 42.2405 175.472C41.9116 175.192 41.6197 174.93 41.3648 174.687C41.1074 174.446 40.8666 174.249 40.6426 174.096C40.416 173.945 40.1791 173.864 39.932 173.854ZM49.6992 167.533C49.2826 167.152 48.8262 166.927 48.3297 166.858C47.8308 166.792 47.3225 166.876 46.8048 167.111C46.2844 167.344 45.7877 167.719 45.3148 168.236C44.8445 168.75 44.5285 169.267 44.3668 169.786C44.2022 170.303 44.1827 170.796 44.3083 171.265C44.4339 171.734 44.6993 172.154 45.1047 172.524C45.4234 172.816 45.7661 173.016 46.133 173.126C46.4945 173.236 46.867 173.261 47.2503 173.2C47.6337 173.14 48.011 173.003 48.3821 172.788C48.7532 172.573 49.105 172.286 49.4375 171.928C50.1506 171.148 50.5325 170.366 50.5831 169.581C50.6284 168.796 50.3338 168.113 49.6992 167.533Z" fill="white"></path> <path d="M45.7735 162.648L39.3879 168.597L38.6946 167.853L45.0802 161.904L45.7735 162.648ZM37.9379 169.241C38.0799 169.394 38.15 169.572 38.1482 169.775C38.1435 169.981 38.0678 170.153 37.9209 170.29C37.774 170.427 37.5989 170.489 37.3957 170.476C37.1897 170.466 37.0157 170.385 36.8737 170.233C36.7316 170.08 36.663 169.901 36.6676 169.695C36.6694 169.491 36.7438 169.321 36.8907 169.184C37.0376 169.047 37.214 168.984 37.42 168.994C37.6233 169.006 37.7959 169.089 37.9379 169.241Z" fill="white"></path> <path d="M43.8895 160.766L43.141 161.359L42.9718 161.145C42.779 160.901 42.5793 160.741 42.3727 160.663C42.1607 160.584 41.9134 160.589 41.6308 160.677C41.3481 160.766 41.0032 160.937 40.596 161.192C40.1889 161.446 39.6937 161.785 39.1106 162.208L35.7908 164.596L32.3494 160.248L39.1929 154.832L39.824 155.629L33.7291 160.453L35.9434 163.251L38.7679 161.226C39.3445 160.813 39.8684 160.471 40.3395 160.199C40.8083 159.925 41.2378 159.744 41.6281 159.658C42.0161 159.568 42.3766 159.587 42.7095 159.715C43.0402 159.84 43.3583 160.095 43.6639 160.481L43.8895 160.766Z" fill="white"></path> <path d="M32.6635 154.773L31.3111 152.609C30.7911 151.778 30.5918 151.009 30.7134 150.303C30.835 149.597 31.241 149.028 31.9316 148.596C32.3909 148.309 32.8556 148.159 33.3258 148.147C33.796 148.134 34.2489 148.262 34.6846 148.53C35.117 148.801 35.507 149.214 35.8543 149.769L37.6525 152.645L30.2523 157.272L29.7162 156.414L36.3069 152.294L35.0449 150.275C34.7176 149.752 34.3283 149.408 33.877 149.243C33.4257 149.078 32.9688 149.141 32.5063 149.43C32.0341 149.725 31.77 150.114 31.7138 150.595C31.6577 151.077 31.7932 151.58 32.1205 152.103L33.4729 154.267L32.6635 154.773Z" fill="white"></path> <path d="M25.376 149.336L24.953 148.417L32.0132 145.166L30.516 141.915L23.4558 145.166L23.0328 144.247L30.093 140.996L28.5959 137.745L21.5357 140.996L21.1127 140.077L29.0399 136.427L33.3032 145.686L25.376 149.336Z" fill="white"></path> <path d="M27.5109 130.931C27.7476 131.71 27.7711 132.439 27.5814 133.119C27.3881 133.799 27.0162 134.393 26.4657 134.9C25.9105 135.405 25.2107 135.786 24.3662 136.043C23.5253 136.298 22.7319 136.371 21.9859 136.261C21.2352 136.148 20.5919 135.874 20.0561 135.439C19.5155 135.002 19.1356 134.422 18.9166 133.701C18.779 133.248 18.7298 132.786 18.7688 132.315C18.8043 131.845 18.9417 131.391 19.1812 130.955C19.4159 130.515 19.7609 130.119 20.2161 129.767C20.6677 129.416 21.2433 129.135 21.9428 128.922L22.4212 128.777L24.4023 135.301L23.5487 135.56L21.8681 130.026C21.3317 130.189 20.8827 130.444 20.521 130.791C20.1547 131.136 19.9048 131.538 19.7713 131.999C19.6368 132.455 19.6455 132.933 19.7974 133.434C19.9581 133.963 20.2408 134.386 20.6457 134.702C21.0506 135.019 21.5197 135.22 22.0529 135.308C22.5851 135.392 23.1272 135.352 23.6792 135.188L24.1902 135.033C24.8535 134.832 25.3988 134.541 25.826 134.162C26.2485 133.781 26.5312 133.336 26.6743 132.83C26.8174 132.323 26.8009 131.78 26.6248 131.2C26.5048 130.805 26.3381 130.478 26.1246 130.218C25.91 129.954 25.6686 129.753 25.4004 129.612C25.1274 129.47 24.85 129.384 24.5679 129.354L24.588 128.345C24.9781 128.365 25.3657 128.475 25.751 128.675C26.1351 128.871 26.4833 129.157 26.7955 129.533C27.103 129.907 27.3415 130.373 27.5109 130.931Z" fill="white"></path> <path d="M15.9468 102.46L15.9812 103.527C15.5863 103.619 15.2237 103.775 14.8934 103.994C14.5593 104.21 14.2704 104.477 14.0267 104.795C13.7831 105.114 13.5975 105.472 13.4701 105.871C13.3427 106.269 13.2864 106.697 13.3012 107.155C13.3248 107.89 13.5376 108.554 13.9395 109.147C14.3412 109.737 14.919 110.201 15.6727 110.541C16.4226 110.877 17.3332 111.027 18.4046 110.993C19.4836 110.958 20.3864 110.749 21.1131 110.366C21.8396 109.978 22.3844 109.478 22.7474 108.863C23.1065 108.245 23.2742 107.569 23.2505 106.835C23.2358 106.377 23.152 105.953 22.9993 105.564C22.8465 105.174 22.6402 104.829 22.3803 104.526C22.1167 104.224 21.8112 103.976 21.4639 103.783C21.1164 103.585 20.7427 103.453 20.3426 103.387L20.3082 102.319C20.8451 102.397 21.3487 102.558 21.819 102.805C22.2853 103.048 22.6973 103.364 23.0547 103.754C23.412 104.141 23.6956 104.59 23.9054 105.102C24.1151 105.615 24.23 106.182 24.25 106.803C24.2815 107.779 24.0652 108.654 23.6012 109.427C23.1334 110.2 22.4597 110.817 21.5802 111.277C20.7005 111.734 19.653 111.982 18.4377 112.021C17.2224 112.06 16.1612 111.88 15.2539 111.481C14.3465 111.078 13.6365 110.506 13.1237 109.764C12.6071 109.023 12.3331 108.164 12.3017 107.187C12.2817 106.566 12.3599 105.994 12.5363 105.469C12.7088 104.944 12.9629 104.477 13.2984 104.068C13.63 103.656 14.0207 103.314 14.4705 103.041C14.9202 102.765 15.4123 102.572 15.9468 102.46Z" fill="white"></path> <path d="M24.098 100.098L15.4066 99.308L15.4982 98.3008L19.4082 98.6563L19.4941 97.7114L15.8779 94.1248L15.9963 92.8234L19.8609 96.6893L24.6949 93.5346L24.5765 94.836L20.473 97.4866L20.3588 98.7428L24.1896 99.0912L24.098 100.098Z" fill="white"></path> <path d="M28.1522 92.4353L16.3937 90.0403L16.5899 89.0771L18.2211 89.4093L18.245 89.2924C18.013 89.1215 17.7846 88.9049 17.5597 88.6426C17.3311 88.3795 17.1588 88.0584 17.0428 87.6791C16.9275 87.2961 16.9231 86.843 17.0297 86.3196C17.1734 85.6144 17.4845 85.0361 17.963 84.5846C18.4385 84.1287 19.0384 83.8218 19.7625 83.6639C20.4837 83.5015 21.2841 83.5099 22.1637 83.6891C23.0471 83.869 23.7908 84.1751 24.3947 84.6074C24.9993 85.0359 25.4332 85.5534 25.6962 86.1597C25.9601 86.7624 26.0209 87.4126 25.8788 88.1104C25.7737 88.6263 25.5928 89.0399 25.3362 89.3509C25.0803 89.6583 24.7949 89.8921 24.4801 90.0522C24.1624 90.2078 23.8619 90.3167 23.5786 90.3788L23.5605 90.4679L28.3541 91.4443L28.1522 92.4353ZM20.8747 89.9324C21.565 90.073 22.1983 90.0957 22.7743 90.0004C23.3474 89.9007 23.8255 89.6888 24.2085 89.3648C24.5885 89.0363 24.8348 88.5955 24.9475 88.0425C25.0631 87.4746 25.0048 86.9641 24.7724 86.5108C24.537 86.0531 24.1729 85.6678 23.68 85.3548C23.1878 85.038 22.6096 84.812 21.9452 84.6767C21.2882 84.5429 20.6754 84.5244 20.1068 84.6212C19.5389 84.7142 19.0608 84.9261 18.6726 85.2568C18.2807 85.5868 18.0266 86.0375 17.9101 86.6091C17.7967 87.1659 17.8507 87.6697 18.0719 88.1207C18.2895 88.5709 18.641 88.9517 19.1265 89.2632C19.609 89.5703 20.1917 89.7933 20.8747 89.9324Z" fill="white"></path> <path d="M28.224 79.3151C27.9862 80.0304 27.5943 80.6027 27.0484 81.0319C26.5037 81.4575 25.8601 81.7185 25.1175 81.8149C24.3713 81.9101 23.5777 81.8178 22.7366 81.5381C21.8883 81.2561 21.1939 80.8535 20.6533 80.3305C20.1091 79.8062 19.7481 79.2111 19.5703 78.5453C19.3902 77.8746 19.419 77.1817 19.6569 76.4664C19.8947 75.7511 20.286 75.1806 20.8307 74.755C21.3754 74.3294 22.0208 74.069 22.767 73.9738C23.5144 73.875 24.3122 73.9667 25.1605 74.2488C26.0016 74.5284 26.6924 74.9298 27.233 75.4529C27.77 75.9747 28.1286 76.571 28.3088 77.2416C28.4901 77.9087 28.4619 78.5999 28.224 79.3151ZM27.3452 79.0229C27.5365 78.4478 27.5438 77.9094 27.3674 77.4076C27.1909 76.9059 26.8798 76.4671 26.4339 76.0913C25.9892 75.7119 25.4578 75.4194 24.8396 75.2138C24.2213 75.0083 23.6188 74.9237 23.0318 74.96C22.4461 74.9928 21.9306 75.1567 21.4852 75.4517C21.0398 75.7467 20.7215 76.1817 20.5303 76.7568C20.3403 77.3283 20.3347 77.8674 20.5135 78.3739C20.6935 78.8769 21.0077 79.3186 21.456 79.6992C21.9054 80.0762 22.4393 80.3675 23.0575 80.5731C23.6757 80.7786 24.2759 80.8644 24.858 80.8305C25.4414 80.7929 25.9539 80.626 26.3957 80.3298C26.8375 80.0337 27.154 79.598 27.3452 79.0229Z" fill="white"></path> <path d="M29.6658 74.4708L28.8004 74.0678L28.9156 73.8206C29.0467 73.539 29.1007 73.2884 29.0776 73.0688C29.0527 72.8441 28.9373 72.6253 28.7314 72.4124C28.5255 72.1995 28.2175 71.9683 27.8072 71.7188C27.3969 71.4692 26.872 71.1788 26.2323 70.8475L22.6081 68.953L24.949 63.9259L32.8606 67.61L32.4313 68.532L25.385 65.2508L23.8788 68.4855L26.9563 70.1003C27.584 70.4303 28.1249 70.7448 28.5789 71.044C29.0346 71.3397 29.3887 71.6425 29.6414 71.9524C29.8956 72.2588 30.0404 72.5895 30.0757 72.9444C30.1126 73.2958 30.0271 73.6947 29.8193 74.1411L29.6658 74.4708Z" fill="white"></path> <path d="M29.9926 61.7369L31.3167 59.5563C31.8259 58.7177 32.4231 58.194 33.1082 57.9852C33.7934 57.7764 34.484 57.8834 35.1801 58.3061C35.6431 58.5872 35.9859 58.9349 36.2085 59.3493C36.4311 59.7636 36.5205 60.2256 36.4769 60.7354C36.4301 61.2431 36.2366 61.7771 35.8964 62.3372L34.1359 65.2366L26.6762 60.7068L27.2011 59.8424L33.8449 63.8767L35.0805 61.8418C35.401 61.314 35.5333 60.8116 35.4773 60.3345C35.4214 59.8573 35.1603 59.4772 34.6941 59.1941C34.2181 58.9051 33.7523 58.8438 33.2967 59.0103C32.8411 59.1768 32.4531 59.5239 32.1326 60.0517L30.8085 62.2323L29.9926 61.7369Z" fill="white"></path> <path d="M32.1367 53.7667L31.3775 53.1881L35.5108 47.7655L36.2699 48.3442L34.5202 50.6397L40.7019 55.3516L40.0888 56.1559L33.9071 51.4441L32.1367 53.7667Z" fill="white"></path> <path d="M46.3702 49.0039C45.809 49.5941 45.1862 49.9741 44.5019 50.144C43.8148 50.3112 43.1148 50.2806 42.4017 50.052C41.6885 49.818 41.0121 49.3969 40.3726 48.7887C39.7358 48.1831 39.2813 47.5287 39.0091 46.8255C38.7368 46.117 38.6578 45.4224 38.772 44.7416C38.8861 44.0556 39.2028 43.4394 39.7223 42.8932C40.0486 42.5501 40.4263 42.2794 40.8553 42.0811C41.2817 41.8802 41.7439 41.7761 42.2421 41.769C42.7401 41.7565 43.2545 41.8615 43.7852 42.0839C44.3132 42.3038 44.842 42.6656 45.3718 43.1694L45.7341 43.514L41.0354 48.4546L40.389 47.8398L44.3751 43.6486C43.9688 43.2622 43.5255 42.9974 43.045 42.854C42.5643 42.7053 42.0909 42.6864 41.6249 42.7972C41.1614 42.9053 40.7495 43.1488 40.3893 43.5275C40.0082 43.9283 39.7798 44.3828 39.7041 44.8911C39.6284 45.3993 39.684 45.907 39.8709 46.4141C40.0604 46.9184 40.3625 47.3703 40.777 47.7698L41.1641 48.1379C41.6664 48.6156 42.1877 48.9468 42.7282 49.1315C43.2686 49.3108 43.7944 49.3378 44.3057 49.2125C44.817 49.0871 45.2814 48.8049 45.6991 48.3657C45.9836 48.0665 46.1863 47.76 46.307 47.4462C46.4303 47.1296 46.4869 46.8201 46.4766 46.5176C46.4662 46.2097 46.4042 45.9259 46.2905 45.6662L47.1786 45.1858C47.3535 45.5351 47.4491 45.9265 47.4653 46.3602C47.4842 46.791 47.4069 47.2351 47.2335 47.6922C47.06 48.144 46.7722 48.5812 46.3702 49.0039Z" fill="white"></path> <path d="M61.635 34.8864L63.5276 37.7875L62.7161 38.3717L61.252 36.3383L60.3667 36.9757L59.809 36.201L61.635 34.8864ZM47.9359 35.1716L48.7566 34.5806L53.2981 40.8886L56.2031 38.7971L51.6616 32.4891L52.4824 31.8982L57.0239 38.2062L59.9289 36.1147L55.3874 29.8067L56.2081 29.2158L61.3074 36.2984L53.0351 42.2542L47.9359 35.1716Z" fill="white"></path> <path d="M67.0248 33.3361C66.3585 33.6886 65.6798 33.8314 64.9886 33.7643C64.3008 33.6954 63.6552 33.4392 63.0519 32.9956C62.4469 32.5487 61.9371 31.9335 61.5225 31.1501C61.1044 30.36 60.8807 29.5891 60.8515 28.8374C60.8205 28.0824 60.9709 27.4028 61.3026 26.7988C61.636 26.1895 62.1357 25.7086 62.802 25.3561C63.4682 25.0035 64.1453 24.8617 64.8331 24.9305C65.521 24.9994 66.1674 25.2573 66.7725 25.7042C67.3809 26.1493 67.8941 26.767 68.3123 27.5571C68.7268 28.3406 68.9487 29.1081 68.9779 29.8598C69.0054 30.6081 68.8524 31.2868 68.5191 31.8961C68.1891 32.5035 67.691 32.9835 67.0248 33.3361ZM66.5916 32.5175C67.1273 32.234 67.5048 31.85 67.724 31.3654C67.9433 30.8808 68.0217 30.3486 67.9592 29.7689C67.9 29.1874 67.718 28.6087 67.4133 28.0328C67.1086 27.457 66.7316 26.9794 66.2823 26.6C65.8363 26.2189 65.3504 25.981 64.8247 25.8864C64.2989 25.7918 63.7682 25.8862 63.2325 26.1696C62.7002 26.4513 62.3236 26.837 62.1027 27.3268C61.8853 27.8147 61.807 28.3511 61.8679 28.936C61.9322 29.5191 62.1167 30.0985 62.4214 30.6744C62.7262 31.2503 63.1006 31.7271 63.5448 32.1049C63.9923 32.4809 64.4781 32.7145 65.0021 32.8058C65.5261 32.897 66.0559 32.8009 66.5916 32.5175Z" fill="white"></path> <path d="M73.8537 17.0532L74.577 17.4634C74.4369 17.7646 74.2268 18.0156 73.9468 18.2163C73.6689 18.4121 73.3411 18.5885 72.9632 18.7456C72.5888 18.9014 72.1864 19.0739 71.756 19.2634C71.1387 19.5366 70.6836 19.8998 70.3908 20.3528C70.0967 20.8024 69.95 21.3455 69.9507 21.9821C69.9537 22.6139 70.0812 23.3378 70.3333 24.1539L70.4394 24.1132C70.4988 23.4535 70.7205 22.8837 71.1044 22.4038C71.4918 21.9225 71.9844 21.5673 72.5821 21.3381C73.2081 21.098 73.8295 21.0362 74.4461 21.1526C75.065 21.2642 75.6327 21.5597 76.1492 22.0391C76.6679 22.5136 77.0893 23.1735 77.4135 24.0188C77.7336 24.8534 77.8656 25.6365 77.8094 26.368C77.7518 27.096 77.524 27.729 77.1259 28.2671C76.7278 28.8052 76.1751 29.2098 75.4677 29.4811C74.7568 29.7537 74.0706 29.8262 73.4091 29.6986C72.7497 29.5661 72.1485 29.2307 71.6054 28.6925C71.0644 28.1495 70.6109 27.4005 70.2446 26.4456L69.9171 25.5914C69.1887 23.6922 68.9414 22.1481 69.175 20.9591C69.4087 19.77 70.1416 18.9149 71.3738 18.3937C71.7716 18.2249 72.1363 18.081 72.4679 17.9619C72.7982 17.8393 73.0821 17.7122 73.3196 17.5805C73.5558 17.4453 73.7338 17.2695 73.8537 17.0532ZM75.1361 28.6164C75.6631 28.4143 76.0684 28.1067 76.3522 27.6936C76.6346 27.277 76.7866 26.7846 76.8081 26.2165C76.8331 25.6471 76.7201 25.0352 76.4692 24.3809C76.2196 23.7301 75.8988 23.2163 75.5068 22.8392C75.1182 22.4608 74.6862 22.2229 74.2106 22.1253C73.7351 22.0278 73.2409 22.0773 72.7281 22.274C72.3249 22.4286 71.9922 22.6455 71.73 22.9245C71.4701 23.1987 71.2812 23.5206 71.1633 23.8903C71.0455 24.2601 70.9997 24.659 71.0259 25.0871C71.0522 25.5152 71.151 25.958 71.3224 26.4156C71.7008 27.4023 72.2298 28.094 72.9093 28.4906C73.591 28.8824 74.3333 28.9243 75.1361 28.6164Z" fill="white"></path> <path d="M84.1901 28.916L83.4879 25.551L84.2276 25.3966C84.3697 25.1503 84.4842 24.8923 84.5711 24.6227C84.658 24.353 84.7194 24.0539 84.7553 23.7252C84.7941 23.3921 84.8058 23.0123 84.7904 22.5861C84.7742 22.1561 84.7325 21.6598 84.6654 21.0972L84.2306 17.4559L89.2865 16.4008L90.8742 24.0097L92.1424 23.7451L92.8446 27.1101L91.8545 27.3167L91.3473 24.8861L84.6785 26.2777L85.1857 28.7083L84.1901 28.916ZM85.3678 25.1587L89.8842 24.2163L88.4914 17.5419L85.3489 18.1976L85.6444 20.893C85.7426 21.8089 85.7798 22.6176 85.7559 23.3191C85.732 24.0205 85.6027 24.6338 85.3678 25.1587Z" fill="white"></path> <path d="M94.1034 24.5508L93.0171 15.8914L94.0262 15.7648L95.1125 24.4242L94.1034 24.5508ZM93.3434 14.3387C93.1367 14.3647 92.9513 14.3173 92.7873 14.1966C92.6228 14.0722 92.528 13.9104 92.503 13.7112C92.4781 13.512 92.5301 13.3336 92.6593 13.1762C92.7879 13.015 92.9556 12.9214 93.1623 12.8955C93.369 12.8696 93.5546 12.9188 93.7191 13.0432C93.8832 13.1639 93.9777 13.3238 94.0027 13.523C94.0276 13.7222 93.9758 13.9024 93.8471 14.0636C93.718 14.2211 93.5501 14.3128 93.3434 14.3387Z" fill="white"></path> <path d="M97.3269 21.9045L98.3993 21.8492C98.4535 22.313 98.6727 22.6658 99.0569 22.9077C99.4411 23.1496 99.9358 23.255 100.541 23.2238C101.169 23.1915 101.68 23.0248 102.074 22.7238C102.468 22.4191 102.651 21.9962 102.623 21.4552C102.606 21.1261 102.514 20.8445 102.346 20.6104C102.183 20.3761 101.965 20.1977 101.693 20.0751C101.425 19.9486 101.124 19.892 100.791 19.9054L99.2704 19.9838L99.2227 19.0588L100.726 18.9814C101.243 18.9244 101.629 18.7642 101.885 18.5007C102.141 18.2334 102.258 17.8955 102.237 17.4869C102.213 17.0216 102.029 16.6575 101.686 16.3945C101.342 16.1278 100.888 16.0089 100.324 16.0379C99.7532 16.0674 99.2857 16.2318 98.9218 16.5312C98.558 16.8306 98.376 17.2003 98.3759 17.6403L97.3148 17.695C97.3094 17.2211 97.4298 16.7977 97.6761 16.4247C97.9222 16.0479 98.265 15.7458 98.7047 15.5183C99.1481 15.2906 99.6573 15.162 100.232 15.1324C100.822 15.102 101.34 15.1815 101.786 15.3709C102.232 15.5604 102.584 15.8324 102.841 16.1871C103.098 16.5379 103.239 16.9441 103.262 17.4056C103.287 17.8861 103.175 18.2882 102.926 18.612C102.681 18.9319 102.357 19.1648 101.955 19.3106L101.96 19.3958C102.272 19.4138 102.55 19.5133 102.794 19.6941C103.043 19.8748 103.243 20.1129 103.394 20.4085C103.546 20.7041 103.631 21.0354 103.65 21.4023C103.677 21.9168 103.566 22.3758 103.317 22.7792C103.069 23.1789 102.71 23.499 102.24 23.7393C101.775 23.9795 101.23 24.1157 100.606 24.1478C100.004 24.1788 99.4638 24.1062 98.9844 23.9298C98.5048 23.7497 98.1177 23.4871 97.823 23.1419C97.5319 22.7928 97.3665 22.3803 97.3269 21.9045Z" fill="white"></path> <path d="M111.565 19.2738L111.515 20.227L106.391 19.9583L106.441 19.005L111.565 19.2738ZM106.895 15.1314L106.437 23.8467L105.427 23.7937L105.885 15.0784L106.895 15.1314ZM112.512 15.4261L112.055 24.1414L111.045 24.0884L111.502 15.3731L112.512 15.4261Z" fill="white"></path> <path d="M117.164 25.0427C116.645 24.9572 116.186 24.7782 115.79 24.5057C115.394 24.2294 115.1 23.8778 114.91 23.451C114.719 23.0205 114.67 22.5287 114.761 21.9755C114.831 21.5494 114.97 21.2038 115.179 20.9387C115.388 20.6736 115.655 20.4719 115.981 20.3336C116.307 20.1953 116.681 20.1052 117.102 20.0632C117.524 20.0212 117.982 20.0103 118.478 20.0305C118.97 20.05 119.386 20.0647 119.726 20.0746C120.07 20.085 120.338 20.0562 120.529 19.9879C120.721 19.9196 120.835 19.7771 120.87 19.5603L120.904 19.3585C121 18.7717 120.9 18.2812 120.604 17.887C120.313 17.4896 119.84 17.2372 119.186 17.1296C118.565 17.0275 118.036 17.0806 117.599 17.2889C117.165 17.4978 116.84 17.7743 116.622 18.1185L115.731 17.6206C116.003 17.1817 116.333 16.8503 116.723 16.6266C117.114 16.3991 117.533 16.2587 117.979 16.2055C118.426 16.1485 118.868 16.156 119.305 16.2279C119.634 16.282 119.969 16.3813 120.31 16.5257C120.655 16.6707 120.963 16.8749 121.234 17.1384C121.506 17.3981 121.707 17.7324 121.835 18.1413C121.964 18.5464 121.981 19.0368 121.887 19.6123L120.925 25.4599L119.927 25.2957L120.151 23.9333L120.089 23.9232C119.928 24.1577 119.71 24.3751 119.435 24.5756C119.16 24.7761 118.832 24.9237 118.452 25.0185C118.072 25.1134 117.643 25.1214 117.164 25.0427ZM117.449 24.151C117.98 24.2383 118.459 24.1962 118.886 24.0247C119.314 23.8532 119.664 23.5903 119.937 23.236C120.215 22.8786 120.393 22.4644 120.47 21.9935L120.675 20.7489C120.588 20.8076 120.453 20.8505 120.268 20.8777C120.087 20.9055 119.878 20.923 119.643 20.9304C119.412 20.9346 119.182 20.9332 118.953 20.9262C118.724 20.9192 118.517 20.9121 118.334 20.9051C117.839 20.8849 117.408 20.9101 117.044 20.9806C116.679 21.0511 116.386 21.1834 116.166 21.3776C115.947 21.5679 115.809 21.8369 115.751 22.1845C115.665 22.7078 115.785 23.1441 116.112 23.4934C116.439 23.8389 116.885 24.0581 117.449 24.151Z" fill="white"></path> <path d="M124.619 18.3128L124.873 17.3925L131.446 19.2025L131.193 20.1228L128.41 19.3565L126.347 26.8504L125.371 26.5819L127.435 19.0881L124.619 18.3128Z" fill="white"></path> <path d="M132.599 27.3188L139.584 22.2613L140.708 22.7107L137.467 30.814L136.528 30.4384L139.235 23.6698L132.266 28.7337L131.126 28.2779L134.367 20.1747L135.306 20.5502L132.599 27.3188Z" fill="white"></path> <path d="M142.7 33.6758C142.011 33.308 141.504 32.8154 141.176 32.1982C140.853 31.5827 140.71 30.9009 140.749 30.153C140.788 29.405 141.012 28.6485 141.421 27.8835C141.834 27.1119 142.342 26.5013 142.948 26.0517C143.557 25.604 144.206 25.3455 144.896 25.2761C145.587 25.2035 146.269 25.3466 146.94 25.7055C147.455 25.9805 147.867 26.3298 148.178 26.7534C148.49 27.1737 148.685 27.6366 148.763 28.142C148.846 28.6459 148.794 29.1554 148.609 29.6706L147.707 29.1885C147.846 28.7042 147.819 28.2129 147.625 27.7145C147.437 27.2145 147.069 26.8181 146.522 26.5253C146.031 26.2628 145.525 26.1643 145.005 26.2298C144.486 26.2919 143.993 26.503 143.526 26.8631C143.063 27.2216 142.666 27.7116 142.334 28.3329C142 28.9576 141.808 29.5658 141.758 30.1576C141.71 30.746 141.801 31.2755 142.03 31.7461C142.263 32.2184 142.632 32.5894 143.136 32.8591C143.477 33.0412 143.821 33.1438 144.17 33.1668C144.523 33.1883 144.859 33.1314 145.176 32.996C145.497 32.8624 145.778 32.6497 146.02 32.358L146.922 32.8402C146.607 33.2688 146.22 33.5946 145.761 33.8177C145.308 34.0392 144.817 34.1419 144.289 34.1258C143.764 34.1115 143.234 33.9615 142.7 33.6758Z" fill="white"></path> <path d="M150.871 32.0346L152.981 33.4682C153.793 34.0195 154.285 34.6426 154.459 35.3375C154.633 36.0324 154.491 36.7167 154.033 37.3904C153.729 37.8384 153.364 38.163 152.939 38.3642C152.514 38.5653 152.048 38.6311 151.541 38.5616C151.036 38.4889 150.513 38.2684 149.971 37.9002L147.165 35.994L152.069 28.775L152.906 29.3434L148.538 35.7728L150.507 37.1106C151.018 37.4575 151.513 37.6152 151.992 37.5837C152.471 37.5522 152.864 37.3108 153.171 36.8596C153.484 36.399 153.569 35.937 153.426 35.4735C153.283 35.01 152.956 34.6047 152.445 34.2578L150.335 32.8242L150.871 32.0346Z" fill="white"></path> <path d="M169.76 38.7028L169.706 39.5326C169.374 39.538 169.057 39.4585 168.754 39.2941C168.456 39.1295 168.155 38.9115 167.848 38.64C167.545 38.3712 167.214 38.0844 166.856 37.7798C166.34 37.3436 165.815 37.0926 165.28 37.0269C164.747 36.9584 164.194 37.0633 163.622 37.3418C163.055 37.6201 162.459 38.0508 161.835 38.6337L161.917 38.7114C162.537 38.477 163.146 38.4278 163.746 38.5638C164.348 38.7024 164.882 38.9906 165.349 39.4284C165.839 39.8869 166.165 40.419 166.33 41.0247C166.499 41.6302 166.481 42.2699 166.275 42.9439C166.075 43.6176 165.665 44.2848 165.046 44.9453C164.434 45.5976 163.787 46.058 163.105 46.3266C162.424 46.5925 161.755 46.6638 161.098 46.5403C160.44 46.4169 159.834 46.0962 159.282 45.5781C158.726 45.0574 158.362 44.4716 158.188 43.8207C158.019 43.1696 158.059 42.4823 158.306 41.7588C158.558 41.0351 159.034 40.3001 159.734 39.5539L160.359 38.8865C161.75 37.4024 163.032 36.506 164.204 36.1974C165.376 35.8888 166.465 36.1752 167.471 37.0564C167.797 37.3407 168.085 37.606 168.337 37.8524C168.592 38.0961 168.83 38.2961 169.052 38.4523C169.277 38.6059 169.513 38.6893 169.76 38.7028ZM159.915 44.9024C160.327 45.2883 160.78 45.5189 161.276 45.5939C161.774 45.6662 162.283 45.5881 162.804 45.3596C163.327 45.1336 163.828 44.765 164.308 44.2537C164.784 43.7452 165.107 43.2323 165.275 42.715C165.446 42.2003 165.471 41.7077 165.352 41.2372C165.232 40.7668 164.972 40.3438 164.571 39.9681C164.256 39.6728 163.916 39.4681 163.55 39.354C163.19 39.2397 162.818 39.2102 162.434 39.2655C162.05 39.3208 161.671 39.4537 161.297 39.6641C160.923 39.8745 160.568 40.1567 160.231 40.5106C159.508 41.2817 159.117 42.0595 159.056 42.8439C159.001 43.6282 159.288 44.3144 159.915 44.9024Z" fill="white"></path> <path d="M163.78 49.8353L170.239 43.966L170.923 44.7187L164.464 50.588L163.78 49.8353ZM171.697 43.3398C171.556 43.1856 171.489 43.0068 171.493 42.8032C171.5 42.597 171.578 42.4265 171.727 42.2915C171.875 42.1564 172.051 42.0965 172.254 42.1115C172.46 42.1241 172.633 42.2074 172.773 42.3616C172.913 42.5158 172.98 42.6959 172.972 42.9021C172.968 43.1056 172.892 43.2749 172.743 43.41C172.594 43.545 172.417 43.6062 172.211 43.5937C172.008 43.5786 171.837 43.494 171.697 43.3398Z" fill="white"></path> <path d="M165.64 51.7402L166.396 51.1571L166.563 51.3731C166.753 51.619 166.95 51.7822 167.156 51.8628C167.367 51.944 167.614 51.9421 167.898 51.8572C168.182 51.7723 168.529 51.6051 168.939 51.3555C169.349 51.106 169.849 50.7734 170.437 50.3578L173.786 48.0109L177.173 52.4016L170.263 57.7324L169.642 56.9272L175.796 52.1794L173.617 49.3542L170.767 51.3443C170.186 51.75 169.658 52.0856 169.183 52.3511C168.711 52.6197 168.279 52.7949 167.888 52.8768C167.499 52.9616 167.139 52.9381 166.807 52.8062C166.478 52.6774 166.163 52.418 165.863 52.0281L165.64 51.7402Z" fill="white"></path> <path d="M176.791 57.8725L178.117 60.0522C178.627 60.8905 178.816 61.6618 178.686 62.3661C178.556 63.0704 178.143 63.6341 177.447 64.0573C176.984 64.3387 176.517 64.4828 176.047 64.4894C175.577 64.4961 175.126 64.3627 174.693 64.0892C174.264 63.8137 173.879 63.3959 173.539 62.836L171.777 59.9378L179.233 55.4034L179.759 56.2675L173.118 60.306L174.354 62.3401C174.675 62.8676 175.06 63.2165 175.51 63.3866C175.959 63.5568 176.416 63.5001 176.882 63.2167C177.358 62.9274 177.627 62.5422 177.689 62.0612C177.751 61.5801 177.622 61.0757 177.301 60.5482L175.976 58.3684L176.791 57.8725Z" fill="white"></path> <path d="M184.011 63.3989L184.423 64.3227L177.323 67.486L178.78 70.7557L185.879 67.5924L186.291 68.5162L179.191 71.6795L180.648 74.9492L187.748 71.7859L188.159 72.7097L180.188 76.2615L176.039 66.9506L184.011 63.3989Z" fill="white"></path> <path d="M181.648 81.7761C181.421 80.994 181.407 80.2646 181.605 79.5879C181.807 78.9101 182.186 78.3208 182.743 77.8201C183.304 77.3219 184.009 76.9499 184.856 76.7039C185.7 76.459 186.494 76.3961 187.239 76.5153C187.988 76.6371 188.628 76.9188 189.159 77.3604C189.694 77.8047 190.066 78.3887 190.276 79.1127C190.408 79.5674 190.452 80.03 190.407 80.5006C190.366 80.97 190.223 81.4217 189.978 81.8557C189.738 82.2921 189.388 82.6836 188.928 83.0299C188.472 83.3752 187.893 83.6497 187.191 83.8534L186.711 83.9928L184.811 77.4447L185.668 77.1961L187.28 82.7511C187.818 82.5948 188.27 82.3453 188.636 82.0025C189.007 81.6622 189.262 81.2629 189.401 80.8044C189.541 80.3496 189.538 79.8712 189.392 79.3692C189.238 78.8381 188.961 78.4118 188.56 78.0903C188.159 77.7688 187.692 77.5611 187.16 77.467C186.629 77.3766 186.087 77.4098 185.533 77.5666L185.02 77.7155C184.354 77.9087 183.805 78.1922 183.373 78.566C182.946 78.9423 182.658 79.3829 182.508 79.8877C182.359 80.3925 182.369 80.936 182.538 81.518C182.653 81.9145 182.816 82.244 183.026 82.5064C183.237 82.7724 183.476 82.9772 183.742 83.1208C184.014 83.2669 184.29 83.3563 184.572 83.389L184.539 84.3982C184.149 84.3733 183.763 84.2586 183.38 84.0542C182.999 83.8533 182.654 83.5629 182.346 83.1827C182.044 82.8052 181.811 82.3363 181.648 81.7761Z" fill="white"></path> </svg> 