<svg width="29" height="32" viewBox="0 0 29 32" fill="none" xmlns="http://www.w3.org/2000/svg">
<path d="M1.3125 29.875H0.0625V31.6278L1.71964 31.0569L1.3125 29.875ZM1.3125 24.625L0.915388 23.4398L0.0625 23.7255V24.625H1.3125ZM25.5625 16.5L25.9596 17.6853L26.8125 17.3995V16.5H25.5625ZM25.5625 15.75H26.8125V14.8505L25.9596 14.5648L25.5625 15.75ZM1.3125 7.62503H0.0625V8.52451L0.915388 8.81027L1.3125 7.62503ZM1.3125 2.37503L1.71964 1.1932L0.0625 0.622314V2.37503H1.3125ZM27.4375 11.375H28.6875V10.4836L27.8446 10.1932L27.4375 11.375ZM27.4375 20.875L27.8446 22.0569L28.6875 21.7665V20.875H27.4375ZM2.5625 29.875V24.625H0.0625V29.875H2.5625ZM1.70961 25.8103L25.9596 17.6853L25.1654 15.3148L0.915388 23.4398L1.70961 25.8103ZM26.8125 16.5V15.75H24.3125V16.5H26.8125ZM25.9596 14.5648L1.70961 6.43978L0.915388 8.81027L25.1654 16.9353L25.9596 14.5648ZM2.5625 7.62503V2.37503H0.0625V7.62503H2.5625ZM0.905362 3.55687L27.0304 12.5569L27.8446 10.1932L1.71964 1.1932L0.905362 3.55687ZM26.1875 11.375V20.875H28.6875V11.375H26.1875ZM27.0304 19.6932L0.905362 28.6932L1.71964 31.0569L27.8446 22.0569L27.0304 19.6932Z" fill="#EAEAEA"/>
</svg>
