<?xml version="1.0" encoding="UTF-8"?> <svg xmlns="http://www.w3.org/2000/svg" width="52" height="52" viewBox="0 0 52 52" fill="none"> <path d="M27.4223 46.935H6.30185C5.1793 46.935 4.26936 46.025 4.26936 44.9024V18.8962H42.4454V23.8066M19.2924 46.935V36.415M19.2924 27.2687V18.8962M19.2924 18.8962H27.4223M19.2924 18.8962L19.2924 9.13008M27.4223 18.8962V27.8292M27.4223 18.8962L27.4223 9.13008M27.4223 9.13008H19.2924M27.4223 9.13008L27.4223 7.50407C27.4223 5.25904 25.6024 3.43902 23.3574 3.43902C21.1124 3.43902 19.2924 5.25904 19.2924 7.50407L19.2924 9.13008M27.4223 9.13008L27.4223 5.06504C27.4223 2.82002 29.2423 1 31.4873 1C33.7323 1 35.5523 2.82002 35.5523 5.06504C35.5523 7.31006 33.7323 9.13008 31.4873 9.13008L27.4223 9.13008ZM27.4223 9.13008L33.5003 9.13008C36.8571 9.13008 39.5783 6.40884 39.5783 3.05203M19.2924 9.13008L19.2924 5.06504C19.2924 2.82002 17.4724 1 15.2274 1C12.9824 1 11.1624 2.82002 11.1624 5.06504C11.1624 7.31006 12.9824 9.13008 15.2274 9.13008L19.2924 9.13008ZM19.2924 9.13008L13.2144 9.13008C9.85758 9.13008 7.13639 6.40884 7.13639 3.05203M40.252 31.6081L34.6602 43.1229M1.91462 18.8962H44.8001C45.3053 18.8962 45.7147 18.4868 45.7147 17.9816V10.0447C45.7147 9.53961 45.3053 9.13006 44.8001 9.13006H1.91462C1.40944 9.13006 1 9.53961 1 10.0447V17.9816C1 18.4868 1.40944 18.8962 1.91462 18.8962ZM23.7647 37.3821C23.7647 44.9031 29.8615 51 37.3823 51C44.9031 51 51 44.9031 51 37.3821C51 29.8612 44.9031 23.7642 37.3823 23.7642C29.8615 23.7642 23.7647 29.8612 23.7647 37.3821ZM34.0951 30.8418C33.2217 29.9684 31.8058 29.9684 30.9325 30.8418C30.0592 31.7152 30.0592 33.1311 30.9325 34.0044C31.8058 34.8778 33.2217 34.8778 34.0951 34.0044C34.9684 33.1311 34.9684 31.7152 34.0951 30.8418ZM44.0129 40.7598C43.1396 39.8864 41.7237 39.8864 40.8504 40.7598C39.977 41.6332 39.977 43.0491 40.8504 43.9224C41.7237 44.7958 43.1396 44.7958 44.0129 43.9224C44.8863 43.0491 44.8863 41.6332 44.0129 40.7598Z" stroke="#D99546" stroke-width="2" stroke-miterlimit="10" stroke-linecap="round" stroke-linejoin="round"></path> </svg> 