<?xml version="1.0" encoding="UTF-8"?> <svg xmlns="http://www.w3.org/2000/svg" width="52" height="50" viewBox="0 0 52 50" fill="none"> <path d="M41.4916 44.997C34.2232 49.7302 24.3933 48.9077 18.0152 42.5296C10.6928 35.2072 10.6928 23.3354 18.0152 16.0131C25.3376 8.69072 37.2093 8.69072 44.5317 16.0131C50.9039 22.3853 51.7307 32.2027 47.0124 39.469M34.5991 10.5213V6.66624H27.918V10.5213M33.1245 27.4203L38.1414 22.4034M41.7148 29.2832H40.8101M20.8321 29.2594H21.7368M31.2854 18.83V19.7347M31.2616 39.7126V38.808M29.729 27.7269L27.0777 25.0756M32.7287 27.8161L37.9995 22.5454M13.379 35.2971H5.88281M12.5235 29.5904H7.24994M13.1186 23.8837H1.97656M15.5925 18.177H8.63342M31.2735 43.4441C23.4461 43.4441 17.1008 37.0988 17.1008 29.2713C17.1008 21.4439 23.4461 15.0986 31.2735 15.0986C39.101 15.0986 45.4463 21.4439 45.4463 29.2713C45.4463 37.0988 39.101 43.4441 31.2735 43.4441ZM27.743 6.66626H34.7742C36.0687 6.66626 37.118 5.61694 37.118 4.32251C37.118 3.02808 36.0687 1.97876 34.7742 1.97876H27.743C26.4486 1.97876 25.3992 3.02808 25.3992 4.32251C25.3992 5.61694 26.4486 6.66626 27.743 6.66626ZM29.2154 29.2713C29.2154 30.408 30.1368 31.3294 31.2734 31.3294C32.4101 31.3294 33.3315 30.408 33.3315 29.2713C33.3315 28.1347 32.4101 27.2133 31.2734 27.2133C30.1368 27.2133 29.2154 28.1347 29.2154 29.2713Z" stroke="#D99546" stroke-width="2" stroke-miterlimit="10" stroke-linecap="round" stroke-linejoin="round"></path> </svg> 