<?xml version="1.0" encoding="UTF-8"?> <svg xmlns="http://www.w3.org/2000/svg" width="52" height="53" viewBox="0 0 52 53" fill="none"> <path d="M38.0348 19.2652H42.7431L38.9809 27.9948M29.2132 25.4183H23.8388C23.8388 25.4183 26.6843 20.1575 27.1539 19.5698C27.6288 18.9755 28.0784 19.3462 28.1212 19.8703C28.1641 20.3945 28.0998 27.9948 28.0998 27.9948M22.4472 28.06C22.4472 28.06 18.2832 28.1134 18.0859 28.0464C17.8887 27.9793 18.4021 27.6251 21.1322 23.6464C21.6421 22.9033 21.9227 22.2765 22.0421 21.7513L22.0844 21.4136C22.0844 20.1799 21.1039 19.1798 19.8945 19.1798C18.8302 19.1798 17.9433 19.9542 17.7457 20.9806M35.1051 19.2652L31.6679 28.0802M2.69589 28.8517C1.52889 26.174 0.801726 23.3539 1.0478 20.7012C1.10907 20.0414 1.40857 19.4282 1.86802 18.9596L5.65887 15.093C6.74358 13.9866 8.53834 14.1198 9.45454 15.3748L13.7364 21.1806C14.194 21.8011 14.127 22.672 13.5799 23.212L10.8063 25.9499C10.4657 26.2859 10.4013 26.8188 10.6516 27.2293V27.2294C14.3432 33.283 19.35 38.39 25.285 42.1553C25.6873 42.4105 26.2098 42.3449 26.5393 41.9976L29.2235 39.1685C29.7528 38.6106 30.6068 38.5422 31.2151 39.0089L36.9072 43.3764C38.1375 44.3109 38.2681 46.1415 37.1834 47.2479L33.3926 51.1146C32.9166 51.5999 32.2878 51.8973 31.6174 51.9575C22.4817 52.7781 11.3594 41.4335 11.3594 41.4335C11.3594 41.4335 7.3138 37.3071 4.27889 31.9873M16.2703 9.33239C23.6556 2.57971 35.0158 2.82342 42.1141 10.0636C49.4598 17.5562 49.4598 29.7038 42.1141 37.1964C40.0665 39.2849 37.6644 40.7912 35.1052 41.7153M11.0603 17.2777C11.7289 15.3291 12.7149 13.4686 14.0184 11.7799M45.5104 8.72655C53.1519 17.6157 52.8157 31.1516 44.5017 39.6317C42.5328 41.64 40.2858 43.192 37.8872 44.2875M8.57577 14.3414C9.64901 11.9075 11.1656 9.62731 13.1256 7.62816C21.3444 -0.754972 34.4073 -1.18606 43.1243 6.33511" stroke="#D99546" stroke-width="2" stroke-miterlimit="10" stroke-linecap="round" stroke-linejoin="round"></path> </svg> 